<svg class="ana" viewBox="0 0 122 170" fill="none" xmlns="http://www.w3.org/2000/svg">
                    <ellipse cx="45.8038" cy="139.048" rx="7" ry="11" transform="rotate(10 45.8038 139.048)" fill="#F6EB8D"/>
                    <ellipse cx="77.8038" cy="137.048" rx="7" ry="11" transform="rotate(-10 77.8038 137.048)" fill="#F6EB8D"/>
                    <path d="M62.5 48L82.8516 107.25H42.1484L62.5 48Z" fill="#40F19C"/>
                    <ellipse cx="62" cy="79.5" rx="17" ry="27.5" fill="#40F19C"/>
                    <rect x="70" y="66" width="50" height="10" transform="rotate(-30 70 66)" fill="#40F19C"/>
                    <rect x="9" y="40" width="50" height="10" transform="rotate(30 9 40)" fill="#40F19C"/>
                    <rect x="43.0358" y="104" width="19" height="29" transform="rotate(10 43.0358 104)" fill="#40F19C"/>
                    <rect x="63" y="107.299" width="19" height="29" transform="rotate(-10 63 107.299)" fill="#40F19C"/>
                    <circle cx="62" cy="31" r="25" fill="#F6EB8D"/>
                    <rect x="95.6064" y="56.2404" width="5" height="50" transform="rotate(170 95.6064 56.2404)" fill="#FDE724"/>
                    <rect x="95.6064" y="56.2404" width="5" height="50" transform="rotate(170 95.6064 56.2404)" fill="#FDE724"/>
                    <rect x="91.6064" y="61.2404" width="5" height="50" transform="rotate(170 91.6064 61.2404)" fill="#FDE724"/>
                    <rect x="31.3632" y="58.2368" width="5" height="50" transform="rotate(-162.283 31.3632 58.2368)" fill="#FDE724"/>
                    <rect x="36.7884" y="58.3234" width="5" height="50" transform="rotate(-163.273 36.7884 58.3234)" fill="#FDE724"/>
                    <rect x="61.6506" width="5" height="25" transform="rotate(60 61.6506 0)" fill="#FDE724"/>
                    <rect x="87.2024" y="9.55051" width="5" height="25" transform="rotate(110 87.2024 9.55051)" fill="#FDE724"/>
                    <rect x="77.2024" y="8.55051" width="5" height="21.2452" transform="rotate(110 77.2024 8.55051)" fill="#FDE724"/>
                    <ellipse cx="63" cy="11.5" rx="19" ry="5.5" fill="#FDE724"/>
                    <circle cx="7" cy="44" r="7" fill="#F6EB8D"/>
                    <circle cx="115" cy="47" r="7" fill="#F6EB8D"/>
                    <rect x="75" y="145.563" width="9" height="16" transform="rotate(-10 75 145.563)" fill="#1C1717"/>
                    <rect x="38.7784" y="147" width="9" height="16" transform="rotate(10 38.7784 147)" fill="#1C1717"/>
                    <ellipse cx="33" cy="164.5" rx="12" ry="5.5" fill="#F82772"/>
                    <ellipse cx="90" cy="164.5" rx="12" ry="5.5" fill="#F82772"/>
                </svg>
