<svg class ="field" viewBox="0 0 1001 500" fill="none" xmlns="http://www.w3.org/2000/svg">
                <rect id="Rectangle 1" width="1000" height="500" fill="#18AB0B"/>
                <g id="Group 24">
                <rect id="Rectangle 35" x="1" width="1000" height="116" fill="#8E8B8B"/>
                <g id="Group 23">
                <g id="Group 21">
                <g id="Group 5">
                <path id="Polygon 1" d="M979.5 86L967.809 104.75H991.191L979.5 86Z" fill="#EA2626"/>
                <circle id="Ellipse 2" r="7.5" transform="matrix(-1 0 0 1 979.5 86.5)" fill="#EBFB86"/>
                <path id="Polygon 2" d="M979.5 86L967.809 104.75H991.191L979.5 86Z" fill="#EA2626"/>
                <circle id="Ellipse 3" r="7.5" transform="matrix(-1 0 0 1 979.5 86.5)" fill="#EBFB86"/>
                </g>
                <g id="Group 6">
                <path id="Polygon 1_2" d="M943.5 86L931.809 104.75H955.191L943.5 86Z" fill="#1E31DF"/>
                <circle id="Ellipse 2_2" r="7.5" transform="matrix(-1 0 0 1 943.5 86.5)" fill="#5B2802"/>
                <path id="Polygon 2_2" d="M943.5 86L931.809 104.75H955.191L943.5 86Z" fill="#1E31DF"/>
                <circle id="Ellipse 3_2" r="7.5" transform="matrix(-1 0 0 1 943.5 86.5)" fill="#5B2802"/>
                </g>
                <g id="Group 7">
                <path id="Polygon 1_3" d="M904.5 86L892.809 104.75H916.191L904.5 86Z" fill="#EA2626"/>
                <circle id="Ellipse 2_3" r="7.5" transform="matrix(-1 0 0 1 904.5 86.5)" fill="#5B2802"/>
                <path id="Polygon 2_3" d="M904.5 86L892.809 104.75H916.191L904.5 86Z" fill="#EA2626"/>
                <circle id="Ellipse 3_3" r="7.5" transform="matrix(-1 0 0 1 904.5 86.5)" fill="#5B2802"/>
                </g>
                <g id="Group 8">
                <path id="Polygon 1_4" d="M868.5 86L856.809 104.75H880.191L868.5 86Z" fill="#1E31DF"/>
                <circle id="Ellipse 2_4" r="7.5" transform="matrix(-1 0 0 1 868.5 86.5)" fill="#EBFB86"/>
                <path id="Polygon 2_4" d="M868.5 86L856.809 104.75H880.191L868.5 86Z" fill="#1E31DF"/>
                <circle id="Ellipse 3_4" r="7.5" transform="matrix(-1 0 0 1 868.5 86.5)" fill="#EBFB86"/>
                </g>
                <g id="Group 9">
                <path id="Polygon 1_5" d="M835.5 86L823.809 104.75H847.191L835.5 86Z" fill="#EA2626"/>
                <circle id="Ellipse 2_5" r="7.5" transform="matrix(-1 0 0 1 835.5 86.5)" fill="#EBFB86"/>
                <path id="Polygon 2_5" d="M835.5 86L823.809 104.75H847.191L835.5 86Z" fill="#EA2626"/>
                <circle id="Ellipse 3_5" r="7.5" transform="matrix(-1 0 0 1 835.5 86.5)" fill="#EBFB86"/>
                </g>
                <g id="Group 10">
                <path id="Polygon 1_6" d="M799.5 86L787.809 104.75H811.191L799.5 86Z" fill="#1E31DF"/>
                <circle id="Ellipse 2_6" r="7.5" transform="matrix(-1 0 0 1 799.5 86.5)" fill="#5B2802"/>
                <path id="Polygon 2_6" d="M799.5 86L787.809 104.75H811.191L799.5 86Z" fill="#1E31DF"/>
                <circle id="Ellipse 3_6" r="7.5" transform="matrix(-1 0 0 1 799.5 86.5)" fill="#5B2802"/>
                </g>
                <g id="Group 11">
                <path id="Polygon 1_7" d="M760.5 86L748.809 104.75H772.191L760.5 86Z" fill="#EA2626"/>
                <circle id="Ellipse 2_7" r="7.5" transform="matrix(-1 0 0 1 760.5 86.5)" fill="#5B2802"/>
                <path id="Polygon 2_7" d="M760.5 86L748.809 104.75H772.191L760.5 86Z" fill="#EA2626"/>
                <circle id="Ellipse 3_7" r="7.5" transform="matrix(-1 0 0 1 760.5 86.5)" fill="#5B2802"/>
                </g>
                <g id="Group 12">
                <path id="Polygon 1_8" d="M724.5 86L712.809 104.75H736.191L724.5 86Z" fill="#1E31DF"/>
                <circle id="Ellipse 2_8" r="7.5" transform="matrix(-1 0 0 1 724.5 86.5)" fill="#EBFB86"/>
                <path id="Polygon 2_8" d="M724.5 86L712.809 104.75H736.191L724.5 86Z" fill="#1E31DF"/>
                <circle id="Ellipse 3_8" r="7.5" transform="matrix(-1 0 0 1 724.5 86.5)" fill="#EBFB86"/>
                </g>
                <g id="Group 13">
                <path id="Polygon 1_9" d="M682.5 86L670.809 104.75H694.191L682.5 86Z" fill="#EA2626"/>
                <circle id="Ellipse 2_9" r="7.5" transform="matrix(-1 0 0 1 682.5 86.5)" fill="#EBFB86"/>
                <path id="Polygon 2_9" d="M682.5 86L670.809 104.75H694.191L682.5 86Z" fill="#EA2626"/>
                <circle id="Ellipse 3_9" r="7.5" transform="matrix(-1 0 0 1 682.5 86.5)" fill="#EBFB86"/>
                </g>
                <g id="Group 14">
                <path id="Polygon 1_10" d="M646.5 86L634.809 104.75H658.191L646.5 86Z" fill="#1E31DF"/>
                <circle id="Ellipse 2_10" r="7.5" transform="matrix(-1 0 0 1 646.5 86.5)" fill="#5B2802"/>
                <path id="Polygon 2_10" d="M646.5 86L634.809 104.75H658.191L646.5 86Z" fill="#1E31DF"/>
                <circle id="Ellipse 3_10" r="7.5" transform="matrix(-1 0 0 1 646.5 86.5)" fill="#5B2802"/>
                </g>
                <g id="Group 15">
                <path id="Polygon 1_11" d="M607.5 86L595.809 104.75H619.191L607.5 86Z" fill="#EA2626"/>
                <circle id="Ellipse 2_11" r="7.5" transform="matrix(-1 0 0 1 607.5 86.5)" fill="#5B2802"/>
                <path id="Polygon 2_11" d="M607.5 86L595.809 104.75H619.191L607.5 86Z" fill="#EA2626"/>
                <circle id="Ellipse 3_11" r="7.5" transform="matrix(-1 0 0 1 607.5 86.5)" fill="#5B2802"/>
                </g>
                <g id="Group 16">
                <path id="Polygon 1_12" d="M571.5 86L559.809 104.75H583.191L571.5 86Z" fill="#1E31DF"/>
                <circle id="Ellipse 2_12" r="7.5" transform="matrix(-1 0 0 1 571.5 86.5)" fill="#EBFB86"/>
                <path id="Polygon 2_12" d="M571.5 86L559.809 104.75H583.191L571.5 86Z" fill="#1E31DF"/>
                <circle id="Ellipse 3_12" r="7.5" transform="matrix(-1 0 0 1 571.5 86.5)" fill="#EBFB86"/>
                </g>
                <g id="Group 17">
                <path id="Polygon 1_13" d="M538.5 86L526.809 104.75H550.191L538.5 86Z" fill="#EA2626"/>
                <circle id="Ellipse 2_13" r="7.5" transform="matrix(-1 0 0 1 538.5 86.5)" fill="#EBFB86"/>
                <path id="Polygon 2_13" d="M538.5 86L526.809 104.75H550.191L538.5 86Z" fill="#EA2626"/>
                <circle id="Ellipse 3_13" r="7.5" transform="matrix(-1 0 0 1 538.5 86.5)" fill="#EBFB86"/>
                </g>
                <g id="Group 18">
                <path id="Polygon 1_14" d="M502.5 86L490.809 104.75H514.191L502.5 86Z" fill="#1E31DF"/>
                <circle id="Ellipse 2_14" r="7.5" transform="matrix(-1 0 0 1 502.5 86.5)" fill="#5B2802"/>
                <path id="Polygon 2_14" d="M502.5 86L490.809 104.75H514.191L502.5 86Z" fill="#1E31DF"/>
                <circle id="Ellipse 3_14" r="7.5" transform="matrix(-1 0 0 1 502.5 86.5)" fill="#5B2802"/>
                </g>
                <g id="Group 19">
                <path id="Polygon 1_15" d="M463.5 86L451.809 104.75H475.191L463.5 86Z" fill="#EA2626"/>
                <circle id="Ellipse 2_15" r="7.5" transform="matrix(-1 0 0 1 463.5 86.5)" fill="#5B2802"/>
                <path id="Polygon 2_15" d="M463.5 86L451.809 104.75H475.191L463.5 86Z" fill="#EA2626"/>
                <circle id="Ellipse 3_15" r="7.5" transform="matrix(-1 0 0 1 463.5 86.5)" fill="#5B2802"/>
                </g>
                <g id="Group 20">
                <path id="Polygon 1_16" d="M427.5 86L415.809 104.75H439.191L427.5 86Z" fill="#1E31DF"/>
                <circle id="Ellipse 2_16" r="7.5" transform="matrix(-1 0 0 1 427.5 86.5)" fill="#EBFB86"/>
                <path id="Polygon 2_16" d="M427.5 86L415.809 104.75H439.191L427.5 86Z" fill="#1E31DF"/>
                <circle id="Ellipse 3_16" r="7.5" transform="matrix(-1 0 0 1 427.5 86.5)" fill="#EBFB86"/>
                </g>
                </g>
                <g id="Group 22">
                <g id="Group 5_2">
                <path id="Polygon 1_17" d="M392.5 86L380.809 104.75H404.191L392.5 86Z" fill="#EA2626"/>
                <circle id="Ellipse 2_17" r="7.5" transform="matrix(-1 0 0 1 392.5 86.5)" fill="#EBFB86"/>
                <path id="Polygon 2_17" d="M392.5 86L380.809 104.75H404.191L392.5 86Z" fill="#EA2626"/>
                <circle id="Ellipse 3_17" r="7.5" transform="matrix(-1 0 0 1 392.5 86.5)" fill="#EBFB86"/>
                </g>
                <g id="Group 6_2">
                <path id="Polygon 1_18" d="M356.5 86L344.809 104.75H368.191L356.5 86Z" fill="#1E31DF"/>
                <circle id="Ellipse 2_18" r="7.5" transform="matrix(-1 0 0 1 356.5 86.5)" fill="#5B2802"/>
                <path id="Polygon 2_18" d="M356.5 86L344.809 104.75H368.191L356.5 86Z" fill="#1E31DF"/>
                <circle id="Ellipse 3_18" r="7.5" transform="matrix(-1 0 0 1 356.5 86.5)" fill="#5B2802"/>
                </g>
                <g id="Group 7_2">
                <path id="Polygon 1_19" d="M317.5 86L305.809 104.75H329.191L317.5 86Z" fill="#EA2626"/>
                <circle id="Ellipse 2_19" r="7.5" transform="matrix(-1 0 0 1 317.5 86.5)" fill="#5B2802"/>
                <path id="Polygon 2_19" d="M317.5 86L305.809 104.75H329.191L317.5 86Z" fill="#EA2626"/>
                <circle id="Ellipse 3_19" r="7.5" transform="matrix(-1 0 0 1 317.5 86.5)" fill="#5B2802"/>
                </g>
                <g id="Group 8_2">
                <path id="Polygon 1_20" d="M281.5 86L269.809 104.75H293.191L281.5 86Z" fill="#1E31DF"/>
                <circle id="Ellipse 2_20" r="7.5" transform="matrix(-1 0 0 1 281.5 86.5)" fill="#EBFB86"/>
                <path id="Polygon 2_20" d="M281.5 86L269.809 104.75H293.191L281.5 86Z" fill="#1E31DF"/>
                <circle id="Ellipse 3_20" r="7.5" transform="matrix(-1 0 0 1 281.5 86.5)" fill="#EBFB86"/>
                </g>
                <g id="Group 9_2">
                <path id="Polygon 1_21" d="M248.5 86L236.809 104.75H260.191L248.5 86Z" fill="#EA2626"/>
                <circle id="Ellipse 2_21" r="7.5" transform="matrix(-1 0 0 1 248.5 86.5)" fill="#EBFB86"/>
                <path id="Polygon 2_21" d="M248.5 86L236.809 104.75H260.191L248.5 86Z" fill="#EA2626"/>
                <circle id="Ellipse 3_21" r="7.5" transform="matrix(-1 0 0 1 248.5 86.5)" fill="#EBFB86"/>
                </g>
                <g id="Group 10_2">
                <path id="Polygon 1_22" d="M212.5 86L200.809 104.75H224.191L212.5 86Z" fill="#1E31DF"/>
                <circle id="Ellipse 2_22" r="7.5" transform="matrix(-1 0 0 1 212.5 86.5)" fill="#5B2802"/>
                <path id="Polygon 2_22" d="M212.5 86L200.809 104.75H224.191L212.5 86Z" fill="#1E31DF"/>
                <circle id="Ellipse 3_22" r="7.5" transform="matrix(-1 0 0 1 212.5 86.5)" fill="#5B2802"/>
                </g>
                <g id="Group 11_2">
                <path id="Polygon 1_23" d="M173.5 86L161.809 104.75H185.191L173.5 86Z" fill="#EA2626"/>
                <circle id="Ellipse 2_23" r="7.5" transform="matrix(-1 0 0 1 173.5 86.5)" fill="#5B2802"/>
                <path id="Polygon 2_23" d="M173.5 86L161.809 104.75H185.191L173.5 86Z" fill="#EA2626"/>
                <circle id="Ellipse 3_23" r="7.5" transform="matrix(-1 0 0 1 173.5 86.5)" fill="#5B2802"/>
                </g>
                <g id="Group 12_2">
                <path id="Polygon 1_24" d="M137.5 86L125.809 104.75H149.191L137.5 86Z" fill="#1E31DF"/>
                <circle id="Ellipse 2_24" r="7.5" transform="matrix(-1 0 0 1 137.5 86.5)" fill="#EBFB86"/>
                <path id="Polygon 2_24" d="M137.5 86L125.809 104.75H149.191L137.5 86Z" fill="#1E31DF"/>
                <circle id="Ellipse 3_24" r="7.5" transform="matrix(-1 0 0 1 137.5 86.5)" fill="#EBFB86"/>
                </g>
                <g id="Group 13_2">
                <path id="Polygon 1_25" d="M95.5 86L83.8087 104.75H107.191L95.5 86Z" fill="#EA2626"/>
                <circle id="Ellipse 2_25" r="7.5" transform="matrix(-1 0 0 1 95.5 86.5)" fill="#EBFB86"/>
                <path id="Polygon 2_25" d="M95.5 86L83.8087 104.75H107.191L95.5 86Z" fill="#EA2626"/>
                <circle id="Ellipse 3_25" r="7.5" transform="matrix(-1 0 0 1 95.5 86.5)" fill="#EBFB86"/>
                </g>
                <g id="Group 14_2">
                <path id="Polygon 1_26" d="M59.5 86L47.8087 104.75H71.1913L59.5 86Z" fill="#1E31DF"/>
                <circle id="Ellipse 2_26" r="7.5" transform="matrix(-1 0 0 1 59.5 86.5)" fill="#5B2802"/>
                <path id="Polygon 2_26" d="M59.5 86L47.8087 104.75H71.1913L59.5 86Z" fill="#1E31DF"/>
                <circle id="Ellipse 3_26" r="7.5" transform="matrix(-1 0 0 1 59.5 86.5)" fill="#5B2802"/>
                </g>
                <g id="Group 15_2">
                <path id="Polygon 1_27" d="M20.5 86L8.80866 104.75H32.1913L20.5 86Z" fill="#EA2626"/>
                <circle id="Ellipse 2_27" r="7.5" transform="matrix(-1 0 0 1 20.5 86.5)" fill="#5B2802"/>
                <path id="Polygon 2_27" d="M20.5 86L8.80866 104.75H32.1913L20.5 86Z" fill="#EA2626"/>
                <circle id="Ellipse 3_27" r="7.5" transform="matrix(-1 0 0 1 20.5 86.5)" fill="#5B2802"/>
                </g>
                </g>
                </g>
                <g id="Group 21_2">
                <g id="Group 5_3">
                <path id="Polygon 1_28" d="M20.5 49L32.1913 67.75H8.80866L20.5 49Z" fill="#EA2626"/>
                <circle id="Ellipse 2_28" cx="20.5" cy="49.5" r="7.5" fill="#EBFB86"/>
                <path id="Polygon 2_28" d="M20.5 49L32.1913 67.75H8.80866L20.5 49Z" fill="#EA2626"/>
                <circle id="Ellipse 3_28" cx="20.5" cy="49.5" r="7.5" fill="#EBFB86"/>
                </g>
                <g id="Group 6_3">
                <path id="Polygon 1_29" d="M56.5 49L68.1913 67.75H44.8087L56.5 49Z" fill="#1E31DF"/>
                <circle id="Ellipse 2_29" cx="56.5" cy="49.5" r="7.5" fill="#5B2802"/>
                <path id="Polygon 2_29" d="M56.5 49L68.1913 67.75H44.8087L56.5 49Z" fill="#1E31DF"/>
                <circle id="Ellipse 3_29" cx="56.5" cy="49.5" r="7.5" fill="#5B2802"/>
                </g>
                <g id="Group 7_3">
                <path id="Polygon 1_30" d="M95.5 49L107.191 67.75H83.8087L95.5 49Z" fill="#EA2626"/>
                <circle id="Ellipse 2_30" cx="95.5" cy="49.5" r="7.5" fill="#5B2802"/>
                <path id="Polygon 2_30" d="M95.5 49L107.191 67.75H83.8087L95.5 49Z" fill="#EA2626"/>
                <circle id="Ellipse 3_30" cx="95.5" cy="49.5" r="7.5" fill="#5B2802"/>
                </g>
                <g id="Group 8_3">
                <path id="Polygon 1_31" d="M131.5 49L143.191 67.75H119.809L131.5 49Z" fill="#1E31DF"/>
                <circle id="Ellipse 2_31" cx="131.5" cy="49.5" r="7.5" fill="#EBFB86"/>
                <path id="Polygon 2_31" d="M131.5 49L143.191 67.75H119.809L131.5 49Z" fill="#1E31DF"/>
                <circle id="Ellipse 3_31" cx="131.5" cy="49.5" r="7.5" fill="#EBFB86"/>
                </g>
                <g id="Group 9_3">
                <path id="Polygon 1_32" d="M164.5 49L176.191 67.75H152.809L164.5 49Z" fill="#EA2626"/>
                <circle id="Ellipse 2_32" cx="164.5" cy="49.5" r="7.5" fill="#EBFB86"/>
                <path id="Polygon 2_32" d="M164.5 49L176.191 67.75H152.809L164.5 49Z" fill="#EA2626"/>
                <circle id="Ellipse 3_32" cx="164.5" cy="49.5" r="7.5" fill="#EBFB86"/>
                </g>
                <g id="Group 10_3">
                <path id="Polygon 1_33" d="M200.5 49L212.191 67.75H188.809L200.5 49Z" fill="#1E31DF"/>
                <circle id="Ellipse 2_33" cx="200.5" cy="49.5" r="7.5" fill="#5B2802"/>
                <path id="Polygon 2_33" d="M200.5 49L212.191 67.75H188.809L200.5 49Z" fill="#1E31DF"/>
                <circle id="Ellipse 3_33" cx="200.5" cy="49.5" r="7.5" fill="#5B2802"/>
                </g>
                <g id="Group 11_3">
                <path id="Polygon 1_34" d="M239.5 49L251.191 67.75H227.809L239.5 49Z" fill="#EA2626"/>
                <circle id="Ellipse 2_34" cx="239.5" cy="49.5" r="7.5" fill="#5B2802"/>
                <path id="Polygon 2_34" d="M239.5 49L251.191 67.75H227.809L239.5 49Z" fill="#EA2626"/>
                <circle id="Ellipse 3_34" cx="239.5" cy="49.5" r="7.5" fill="#5B2802"/>
                </g>
                <g id="Group 12_3">
                <path id="Polygon 1_35" d="M275.5 49L287.191 67.75H263.809L275.5 49Z" fill="#1E31DF"/>
                <circle id="Ellipse 2_35" cx="275.5" cy="49.5" r="7.5" fill="#EBFB86"/>
                <path id="Polygon 2_35" d="M275.5 49L287.191 67.75H263.809L275.5 49Z" fill="#1E31DF"/>
                <circle id="Ellipse 3_35" cx="275.5" cy="49.5" r="7.5" fill="#EBFB86"/>
                </g>
                <g id="Group 13_3">
                <path id="Polygon 1_36" d="M317.5 49L329.191 67.75H305.809L317.5 49Z" fill="#EA2626"/>
                <circle id="Ellipse 2_36" cx="317.5" cy="49.5" r="7.5" fill="#EBFB86"/>
                <path id="Polygon 2_36" d="M317.5 49L329.191 67.75H305.809L317.5 49Z" fill="#EA2626"/>
                <circle id="Ellipse 3_36" cx="317.5" cy="49.5" r="7.5" fill="#EBFB86"/>
                </g>
                <g id="Group 14_3">
                <path id="Polygon 1_37" d="M353.5 49L365.191 67.75H341.809L353.5 49Z" fill="#1E31DF"/>
                <circle id="Ellipse 2_37" cx="353.5" cy="49.5" r="7.5" fill="#5B2802"/>
                <path id="Polygon 2_37" d="M353.5 49L365.191 67.75H341.809L353.5 49Z" fill="#1E31DF"/>
                <circle id="Ellipse 3_37" cx="353.5" cy="49.5" r="7.5" fill="#5B2802"/>
                </g>
                <g id="Group 15_3">
                <path id="Polygon 1_38" d="M392.5 49L404.191 67.75H380.809L392.5 49Z" fill="#EA2626"/>
                <circle id="Ellipse 2_38" cx="392.5" cy="49.5" r="7.5" fill="#5B2802"/>
                <path id="Polygon 2_38" d="M392.5 49L404.191 67.75H380.809L392.5 49Z" fill="#EA2626"/>
                <circle id="Ellipse 3_38" cx="392.5" cy="49.5" r="7.5" fill="#5B2802"/>
                </g>
                <g id="Group 16_2">
                <path id="Polygon 1_39" d="M428.5 49L440.191 67.75H416.809L428.5 49Z" fill="#1E31DF"/>
                <circle id="Ellipse 2_39" cx="428.5" cy="49.5" r="7.5" fill="#EBFB86"/>
                <path id="Polygon 2_39" d="M428.5 49L440.191 67.75H416.809L428.5 49Z" fill="#1E31DF"/>
                <circle id="Ellipse 3_39" cx="428.5" cy="49.5" r="7.5" fill="#EBFB86"/>
                </g>
                <g id="Group 17_2">
                <path id="Polygon 1_40" d="M461.5 49L473.191 67.75H449.809L461.5 49Z" fill="#EA2626"/>
                <circle id="Ellipse 2_40" cx="461.5" cy="49.5" r="7.5" fill="#EBFB86"/>
                <path id="Polygon 2_40" d="M461.5 49L473.191 67.75H449.809L461.5 49Z" fill="#EA2626"/>
                <circle id="Ellipse 3_40" cx="461.5" cy="49.5" r="7.5" fill="#EBFB86"/>
                </g>
                <g id="Group 18_2">
                <path id="Polygon 1_41" d="M497.5 49L509.191 67.75H485.809L497.5 49Z" fill="#1E31DF"/>
                <circle id="Ellipse 2_41" cx="497.5" cy="49.5" r="7.5" fill="#5B2802"/>
                <path id="Polygon 2_41" d="M497.5 49L509.191 67.75H485.809L497.5 49Z" fill="#1E31DF"/>
                <circle id="Ellipse 3_41" cx="497.5" cy="49.5" r="7.5" fill="#5B2802"/>
                </g>
                <g id="Group 19_2">
                <path id="Polygon 1_42" d="M536.5 49L548.191 67.75H524.809L536.5 49Z" fill="#EA2626"/>
                <circle id="Ellipse 2_42" cx="536.5" cy="49.5" r="7.5" fill="#5B2802"/>
                <path id="Polygon 2_42" d="M536.5 49L548.191 67.75H524.809L536.5 49Z" fill="#EA2626"/>
                <circle id="Ellipse 3_42" cx="536.5" cy="49.5" r="7.5" fill="#5B2802"/>
                </g>
                <g id="Group 20_2">
                <path id="Polygon 1_43" d="M572.5 49L584.191 67.75H560.809L572.5 49Z" fill="#1E31DF"/>
                <circle id="Ellipse 2_43" cx="572.5" cy="49.5" r="7.5" fill="#EBFB86"/>
                <path id="Polygon 2_43" d="M572.5 49L584.191 67.75H560.809L572.5 49Z" fill="#1E31DF"/>
                <circle id="Ellipse 3_43" cx="572.5" cy="49.5" r="7.5" fill="#EBFB86"/>
                </g>
                </g>
                <g id="Group 22_2">
                <g id="Group 5_4">
                <path id="Polygon 1_44" d="M607.5 49L619.191 67.75H595.809L607.5 49Z" fill="#EA2626"/>
                <circle id="Ellipse 2_44" cx="607.5" cy="49.5" r="7.5" fill="#EBFB86"/>
                <path id="Polygon 2_44" d="M607.5 49L619.191 67.75H595.809L607.5 49Z" fill="#EA2626"/>
                <circle id="Ellipse 3_44" cx="607.5" cy="49.5" r="7.5" fill="#EBFB86"/>
                </g>
                <g id="Group 6_4">
                <path id="Polygon 1_45" d="M643.5 49L655.191 67.75H631.809L643.5 49Z" fill="#1E31DF"/>
                <circle id="Ellipse 2_45" cx="643.5" cy="49.5" r="7.5" fill="#5B2802"/>
                <path id="Polygon 2_45" d="M643.5 49L655.191 67.75H631.809L643.5 49Z" fill="#1E31DF"/>
                <circle id="Ellipse 3_45" cx="643.5" cy="49.5" r="7.5" fill="#5B2802"/>
                </g>
                <g id="Group 7_4">
                <path id="Polygon 1_46" d="M682.5 49L694.191 67.75H670.809L682.5 49Z" fill="#EA2626"/>
                <circle id="Ellipse 2_46" cx="682.5" cy="49.5" r="7.5" fill="#5B2802"/>
                <path id="Polygon 2_46" d="M682.5 49L694.191 67.75H670.809L682.5 49Z" fill="#EA2626"/>
                <circle id="Ellipse 3_46" cx="682.5" cy="49.5" r="7.5" fill="#5B2802"/>
                </g>
                <g id="Group 8_4">
                <path id="Polygon 1_47" d="M718.5 49L730.191 67.75H706.809L718.5 49Z" fill="#1E31DF"/>
                <circle id="Ellipse 2_47" cx="718.5" cy="49.5" r="7.5" fill="#EBFB86"/>
                <path id="Polygon 2_47" d="M718.5 49L730.191 67.75H706.809L718.5 49Z" fill="#1E31DF"/>
                <circle id="Ellipse 3_47" cx="718.5" cy="49.5" r="7.5" fill="#EBFB86"/>
                </g>
                <g id="Group 9_4">
                <path id="Polygon 1_48" d="M751.5 49L763.191 67.75H739.809L751.5 49Z" fill="#EA2626"/>
                <circle id="Ellipse 2_48" cx="751.5" cy="49.5" r="7.5" fill="#EBFB86"/>
                <path id="Polygon 2_48" d="M751.5 49L763.191 67.75H739.809L751.5 49Z" fill="#EA2626"/>
                <circle id="Ellipse 3_48" cx="751.5" cy="49.5" r="7.5" fill="#EBFB86"/>
                </g>
                <g id="Group 10_4">
                <path id="Polygon 1_49" d="M787.5 49L799.191 67.75H775.809L787.5 49Z" fill="#1E31DF"/>
                <circle id="Ellipse 2_49" cx="787.5" cy="49.5" r="7.5" fill="#5B2802"/>
                <path id="Polygon 2_49" d="M787.5 49L799.191 67.75H775.809L787.5 49Z" fill="#1E31DF"/>
                <circle id="Ellipse 3_49" cx="787.5" cy="49.5" r="7.5" fill="#5B2802"/>
                </g>
                <g id="Group 11_4">
                <path id="Polygon 1_50" d="M826.5 49L838.191 67.75H814.809L826.5 49Z" fill="#EA2626"/>
                <circle id="Ellipse 2_50" cx="826.5" cy="49.5" r="7.5" fill="#5B2802"/>
                <path id="Polygon 2_50" d="M826.5 49L838.191 67.75H814.809L826.5 49Z" fill="#EA2626"/>
                <circle id="Ellipse 3_50" cx="826.5" cy="49.5" r="7.5" fill="#5B2802"/>
                </g>
                <g id="Group 12_4">
                <path id="Polygon 1_51" d="M862.5 49L874.191 67.75H850.809L862.5 49Z" fill="#1E31DF"/>
                <circle id="Ellipse 2_51" cx="862.5" cy="49.5" r="7.5" fill="#EBFB86"/>
                <path id="Polygon 2_51" d="M862.5 49L874.191 67.75H850.809L862.5 49Z" fill="#1E31DF"/>
                <circle id="Ellipse 3_51" cx="862.5" cy="49.5" r="7.5" fill="#EBFB86"/>
                </g>
                <g id="Group 13_4">
                <path id="Polygon 1_52" d="M904.5 49L916.191 67.75H892.809L904.5 49Z" fill="#EA2626"/>
                <circle id="Ellipse 2_52" cx="904.5" cy="49.5" r="7.5" fill="#EBFB86"/>
                <path id="Polygon 2_52" d="M904.5 49L916.191 67.75H892.809L904.5 49Z" fill="#EA2626"/>
                <circle id="Ellipse 3_52" cx="904.5" cy="49.5" r="7.5" fill="#EBFB86"/>
                </g>
                <g id="Group 14_4">
                <path id="Polygon 1_53" d="M940.5 49L952.191 67.75H928.809L940.5 49Z" fill="#1E31DF"/>
                <circle id="Ellipse 2_53" cx="940.5" cy="49.5" r="7.5" fill="#5B2802"/>
                <path id="Polygon 2_53" d="M940.5 49L952.191 67.75H928.809L940.5 49Z" fill="#1E31DF"/>
                <circle id="Ellipse 3_53" cx="940.5" cy="49.5" r="7.5" fill="#5B2802"/>
                </g>
                <g id="Group 15_4">
                <path id="Polygon 1_54" d="M979.5 49L991.191 67.75H967.809L979.5 49Z" fill="#EA2626"/>
                <circle id="Ellipse 2_54" cx="979.5" cy="49.5" r="7.5" fill="#5B2802"/>
                <path id="Polygon 2_54" d="M979.5 49L991.191 67.75H967.809L979.5 49Z" fill="#EA2626"/>
                <circle id="Ellipse 3_54" cx="979.5" cy="49.5" r="7.5" fill="#5B2802"/>
                </g>
                </g>
                <g id="Group 23_2">
                <g id="Group 21_3">
                <g id="Group 5_5">
                <path id="Polygon 1_55" d="M979.5 17L967.809 35.75H991.191L979.5 17Z" fill="#EA2626"/>
                <circle id="Ellipse 2_55" r="7.5" transform="matrix(-1 0 0 1 979.5 17.5)" fill="#EBFB86"/>
                <path id="Polygon 2_55" d="M979.5 17L967.809 35.75H991.191L979.5 17Z" fill="#EA2626"/>
                <circle id="Ellipse 3_55" r="7.5" transform="matrix(-1 0 0 1 979.5 17.5)" fill="#EBFB86"/>
                </g>
                <g id="Group 6_5">
                <path id="Polygon 1_56" d="M943.5 17L931.809 35.75H955.191L943.5 17Z" fill="#1E31DF"/>
                <circle id="Ellipse 2_56" r="7.5" transform="matrix(-1 0 0 1 943.5 17.5)" fill="#5B2802"/>
                <path id="Polygon 2_56" d="M943.5 17L931.809 35.75H955.191L943.5 17Z" fill="#1E31DF"/>
                <circle id="Ellipse 3_56" r="7.5" transform="matrix(-1 0 0 1 943.5 17.5)" fill="#5B2802"/>
                </g>
                <g id="Group 7_5">
                <path id="Polygon 1_57" d="M904.5 17L892.809 35.75H916.191L904.5 17Z" fill="#EA2626"/>
                <circle id="Ellipse 2_57" r="7.5" transform="matrix(-1 0 0 1 904.5 17.5)" fill="#5B2802"/>
                <path id="Polygon 2_57" d="M904.5 17L892.809 35.75H916.191L904.5 17Z" fill="#EA2626"/>
                <circle id="Ellipse 3_57" r="7.5" transform="matrix(-1 0 0 1 904.5 17.5)" fill="#5B2802"/>
                </g>
                <g id="Group 8_5">
                <path id="Polygon 1_58" d="M868.5 17L856.809 35.75H880.191L868.5 17Z" fill="#1E31DF"/>
                <circle id="Ellipse 2_58" r="7.5" transform="matrix(-1 0 0 1 868.5 17.5)" fill="#EBFB86"/>
                <path id="Polygon 2_58" d="M868.5 17L856.809 35.75H880.191L868.5 17Z" fill="#1E31DF"/>
                <circle id="Ellipse 3_58" r="7.5" transform="matrix(-1 0 0 1 868.5 17.5)" fill="#EBFB86"/>
                </g>
                <g id="Group 9_5">
                <path id="Polygon 1_59" d="M835.5 17L823.809 35.75H847.191L835.5 17Z" fill="#EA2626"/>
                <circle id="Ellipse 2_59" r="7.5" transform="matrix(-1 0 0 1 835.5 17.5)" fill="#EBFB86"/>
                <path id="Polygon 2_59" d="M835.5 17L823.809 35.75H847.191L835.5 17Z" fill="#EA2626"/>
                <circle id="Ellipse 3_59" r="7.5" transform="matrix(-1 0 0 1 835.5 17.5)" fill="#EBFB86"/>
                </g>
                <g id="Group 10_5">
                <path id="Polygon 1_60" d="M799.5 17L787.809 35.75H811.191L799.5 17Z" fill="#1E31DF"/>
                <circle id="Ellipse 2_60" r="7.5" transform="matrix(-1 0 0 1 799.5 17.5)" fill="#5B2802"/>
                <path id="Polygon 2_60" d="M799.5 17L787.809 35.75H811.191L799.5 17Z" fill="#1E31DF"/>
                <circle id="Ellipse 3_60" r="7.5" transform="matrix(-1 0 0 1 799.5 17.5)" fill="#5B2802"/>
                </g>
                <g id="Group 11_5">
                <path id="Polygon 1_61" d="M760.5 17L748.809 35.75H772.191L760.5 17Z" fill="#EA2626"/>
                <circle id="Ellipse 2_61" r="7.5" transform="matrix(-1 0 0 1 760.5 17.5)" fill="#5B2802"/>
                <path id="Polygon 2_61" d="M760.5 17L748.809 35.75H772.191L760.5 17Z" fill="#EA2626"/>
                <circle id="Ellipse 3_61" r="7.5" transform="matrix(-1 0 0 1 760.5 17.5)" fill="#5B2802"/>
                </g>
                <g id="Group 12_5">
                <path id="Polygon 1_62" d="M724.5 17L712.809 35.75H736.191L724.5 17Z" fill="#1E31DF"/>
                <circle id="Ellipse 2_62" r="7.5" transform="matrix(-1 0 0 1 724.5 17.5)" fill="#EBFB86"/>
                <path id="Polygon 2_62" d="M724.5 17L712.809 35.75H736.191L724.5 17Z" fill="#1E31DF"/>
                <circle id="Ellipse 3_62" r="7.5" transform="matrix(-1 0 0 1 724.5 17.5)" fill="#EBFB86"/>
                </g>
                <g id="Group 13_5">
                <path id="Polygon 1_63" d="M682.5 17L670.809 35.75H694.191L682.5 17Z" fill="#EA2626"/>
                <circle id="Ellipse 2_63" r="7.5" transform="matrix(-1 0 0 1 682.5 17.5)" fill="#EBFB86"/>
                <path id="Polygon 2_63" d="M682.5 17L670.809 35.75H694.191L682.5 17Z" fill="#EA2626"/>
                <circle id="Ellipse 3_63" r="7.5" transform="matrix(-1 0 0 1 682.5 17.5)" fill="#EBFB86"/>
                </g>
                <g id="Group 14_5">
                <path id="Polygon 1_64" d="M646.5 17L634.809 35.75H658.191L646.5 17Z" fill="#1E31DF"/>
                <circle id="Ellipse 2_64" r="7.5" transform="matrix(-1 0 0 1 646.5 17.5)" fill="#5B2802"/>
                <path id="Polygon 2_64" d="M646.5 17L634.809 35.75H658.191L646.5 17Z" fill="#1E31DF"/>
                <circle id="Ellipse 3_64" r="7.5" transform="matrix(-1 0 0 1 646.5 17.5)" fill="#5B2802"/>
                </g>
                <g id="Group 15_5">
                <path id="Polygon 1_65" d="M607.5 17L595.809 35.75H619.191L607.5 17Z" fill="#EA2626"/>
                <circle id="Ellipse 2_65" r="7.5" transform="matrix(-1 0 0 1 607.5 17.5)" fill="#5B2802"/>
                <path id="Polygon 2_65" d="M607.5 17L595.809 35.75H619.191L607.5 17Z" fill="#EA2626"/>
                <circle id="Ellipse 3_65" r="7.5" transform="matrix(-1 0 0 1 607.5 17.5)" fill="#5B2802"/>
                </g>
                <g id="Group 16_3">
                <path id="Polygon 1_66" d="M571.5 17L559.809 35.75H583.191L571.5 17Z" fill="#1E31DF"/>
                <circle id="Ellipse 2_66" r="7.5" transform="matrix(-1 0 0 1 571.5 17.5)" fill="#EBFB86"/>
                <path id="Polygon 2_66" d="M571.5 17L559.809 35.75H583.191L571.5 17Z" fill="#1E31DF"/>
                <circle id="Ellipse 3_66" r="7.5" transform="matrix(-1 0 0 1 571.5 17.5)" fill="#EBFB86"/>
                </g>
                <g id="Group 17_3">
                <path id="Polygon 1_67" d="M538.5 17L526.809 35.75H550.191L538.5 17Z" fill="#EA2626"/>
                <circle id="Ellipse 2_67" r="7.5" transform="matrix(-1 0 0 1 538.5 17.5)" fill="#EBFB86"/>
                <path id="Polygon 2_67" d="M538.5 17L526.809 35.75H550.191L538.5 17Z" fill="#EA2626"/>
                <circle id="Ellipse 3_67" r="7.5" transform="matrix(-1 0 0 1 538.5 17.5)" fill="#EBFB86"/>
                </g>
                <g id="Group 18_3">
                <path id="Polygon 1_68" d="M502.5 17L490.809 35.75H514.191L502.5 17Z" fill="#1E31DF"/>
                <circle id="Ellipse 2_68" r="7.5" transform="matrix(-1 0 0 1 502.5 17.5)" fill="#5B2802"/>
                <path id="Polygon 2_68" d="M502.5 17L490.809 35.75H514.191L502.5 17Z" fill="#1E31DF"/>
                <circle id="Ellipse 3_68" r="7.5" transform="matrix(-1 0 0 1 502.5 17.5)" fill="#5B2802"/>
                </g>
                <g id="Group 19_3">
                <path id="Polygon 1_69" d="M463.5 17L451.809 35.75H475.191L463.5 17Z" fill="#EA2626"/>
                <circle id="Ellipse 2_69" r="7.5" transform="matrix(-1 0 0 1 463.5 17.5)" fill="#5B2802"/>
                <path id="Polygon 2_69" d="M463.5 17L451.809 35.75H475.191L463.5 17Z" fill="#EA2626"/>
                <circle id="Ellipse 3_69" r="7.5" transform="matrix(-1 0 0 1 463.5 17.5)" fill="#5B2802"/>
                </g>
                <g id="Group 20_3">
                <path id="Polygon 1_70" d="M427.5 17L415.809 35.75H439.191L427.5 17Z" fill="#1E31DF"/>
                <circle id="Ellipse 2_70" r="7.5" transform="matrix(-1 0 0 1 427.5 17.5)" fill="#EBFB86"/>
                <path id="Polygon 2_70" d="M427.5 17L415.809 35.75H439.191L427.5 17Z" fill="#1E31DF"/>
                <circle id="Ellipse 3_70" r="7.5" transform="matrix(-1 0 0 1 427.5 17.5)" fill="#EBFB86"/>
                </g>
                </g>
                <g id="Group 22_3">
                <g id="Group 5_6">
                <path id="Polygon 1_71" d="M392.5 17L380.809 35.75H404.191L392.5 17Z" fill="#EA2626"/>
                <circle id="Ellipse 2_71" r="7.5" transform="matrix(-1 0 0 1 392.5 17.5)" fill="#EBFB86"/>
                <path id="Polygon 2_71" d="M392.5 17L380.809 35.75H404.191L392.5 17Z" fill="#EA2626"/>
                <circle id="Ellipse 3_71" r="7.5" transform="matrix(-1 0 0 1 392.5 17.5)" fill="#EBFB86"/>
                </g>
                <g id="Group 6_6">
                <path id="Polygon 1_72" d="M356.5 17L344.809 35.75H368.191L356.5 17Z" fill="#1E31DF"/>
                <circle id="Ellipse 2_72" r="7.5" transform="matrix(-1 0 0 1 356.5 17.5)" fill="#5B2802"/>
                <path id="Polygon 2_72" d="M356.5 17L344.809 35.75H368.191L356.5 17Z" fill="#1E31DF"/>
                <circle id="Ellipse 3_72" r="7.5" transform="matrix(-1 0 0 1 356.5 17.5)" fill="#5B2802"/>
                </g>
                <g id="Group 7_6">
                <path id="Polygon 1_73" d="M317.5 17L305.809 35.75H329.191L317.5 17Z" fill="#EA2626"/>
                <circle id="Ellipse 2_73" r="7.5" transform="matrix(-1 0 0 1 317.5 17.5)" fill="#5B2802"/>
                <path id="Polygon 2_73" d="M317.5 17L305.809 35.75H329.191L317.5 17Z" fill="#EA2626"/>
                <circle id="Ellipse 3_73" r="7.5" transform="matrix(-1 0 0 1 317.5 17.5)" fill="#5B2802"/>
                </g>
                <g id="Group 8_6">
                <path id="Polygon 1_74" d="M281.5 17L269.809 35.75H293.191L281.5 17Z" fill="#1E31DF"/>
                <circle id="Ellipse 2_74" r="7.5" transform="matrix(-1 0 0 1 281.5 17.5)" fill="#EBFB86"/>
                <path id="Polygon 2_74" d="M281.5 17L269.809 35.75H293.191L281.5 17Z" fill="#1E31DF"/>
                <circle id="Ellipse 3_74" r="7.5" transform="matrix(-1 0 0 1 281.5 17.5)" fill="#EBFB86"/>
                </g>
                <g id="Group 9_6">
                <path id="Polygon 1_75" d="M248.5 17L236.809 35.75H260.191L248.5 17Z" fill="#EA2626"/>
                <circle id="Ellipse 2_75" r="7.5" transform="matrix(-1 0 0 1 248.5 17.5)" fill="#EBFB86"/>
                <path id="Polygon 2_75" d="M248.5 17L236.809 35.75H260.191L248.5 17Z" fill="#EA2626"/>
                <circle id="Ellipse 3_75" r="7.5" transform="matrix(-1 0 0 1 248.5 17.5)" fill="#EBFB86"/>
                </g>
                <g id="Group 10_6">
                <path id="Polygon 1_76" d="M212.5 17L200.809 35.75H224.191L212.5 17Z" fill="#1E31DF"/>
                <circle id="Ellipse 2_76" r="7.5" transform="matrix(-1 0 0 1 212.5 17.5)" fill="#5B2802"/>
                <path id="Polygon 2_76" d="M212.5 17L200.809 35.75H224.191L212.5 17Z" fill="#1E31DF"/>
                <circle id="Ellipse 3_76" r="7.5" transform="matrix(-1 0 0 1 212.5 17.5)" fill="#5B2802"/>
                </g>
                <g id="Group 11_6">
                <path id="Polygon 1_77" d="M173.5 17L161.809 35.75H185.191L173.5 17Z" fill="#EA2626"/>
                <circle id="Ellipse 2_77" r="7.5" transform="matrix(-1 0 0 1 173.5 17.5)" fill="#5B2802"/>
                <path id="Polygon 2_77" d="M173.5 17L161.809 35.75H185.191L173.5 17Z" fill="#EA2626"/>
                <circle id="Ellipse 3_77" r="7.5" transform="matrix(-1 0 0 1 173.5 17.5)" fill="#5B2802"/>
                </g>
                <g id="Group 12_6">
                <path id="Polygon 1_78" d="M137.5 17L125.809 35.75H149.191L137.5 17Z" fill="#1E31DF"/>
                <circle id="Ellipse 2_78" r="7.5" transform="matrix(-1 0 0 1 137.5 17.5)" fill="#EBFB86"/>
                <path id="Polygon 2_78" d="M137.5 17L125.809 35.75H149.191L137.5 17Z" fill="#1E31DF"/>
                <circle id="Ellipse 3_78" r="7.5" transform="matrix(-1 0 0 1 137.5 17.5)" fill="#EBFB86"/>
                </g>
                <g id="Group 13_6">
                <path id="Polygon 1_79" d="M95.5 17L83.8087 35.75H107.191L95.5 17Z" fill="#EA2626"/>
                <circle id="Ellipse 2_79" r="7.5" transform="matrix(-1 0 0 1 95.5 17.5)" fill="#EBFB86"/>
                <path id="Polygon 2_79" d="M95.5 17L83.8087 35.75H107.191L95.5 17Z" fill="#EA2626"/>
                <circle id="Ellipse 3_79" r="7.5" transform="matrix(-1 0 0 1 95.5 17.5)" fill="#EBFB86"/>
                </g>
                <g id="Group 14_6">
                <path id="Polygon 1_80" d="M59.5 17L47.8087 35.75H71.1913L59.5 17Z" fill="#1E31DF"/>
                <circle id="Ellipse 2_80" r="7.5" transform="matrix(-1 0 0 1 59.5 17.5)" fill="#5B2802"/>
                <path id="Polygon 2_80" d="M59.5 17L47.8087 35.75H71.1913L59.5 17Z" fill="#1E31DF"/>
                <circle id="Ellipse 3_80" r="7.5" transform="matrix(-1 0 0 1 59.5 17.5)" fill="#5B2802"/>
                </g>
                <g id="Group 15_6">
                <path id="Polygon 1_81" d="M20.5 17L8.80866 35.75H32.1913L20.5 17Z" fill="#EA2626"/>
                <circle id="Ellipse 2_81" r="7.5" transform="matrix(-1 0 0 1 20.5 17.5)" fill="#5B2802"/>
                <path id="Polygon 2_81" d="M20.5 17L8.80866 35.75H32.1913L20.5 17Z" fill="#EA2626"/>
                <circle id="Ellipse 3_81" r="7.5" transform="matrix(-1 0 0 1 20.5 17.5)" fill="#5B2802"/>
                </g>
                </g>
                </g>
                </g>
                <rect id="Rectangle 31" y="116" width="1000" height="40" fill="#2320B5"/>
                <g id="Group 4">
                <rect id="Rectangle 7" x="379" y="157" width="242" height="2" fill="#D9D9D9"/>
                <rect id="Rectangle 10" x="379" y="179" width="242" height="2" fill="#D9D9D9"/>
                <rect id="Rectangle 9" x="379" y="146" width="242" height="2" fill="#D9D9D9"/>
                <rect id="Rectangle 8" x="379" y="168" width="242" height="2" fill="#D9D9D9"/>
                <rect id="Rectangle 15" x="379" y="114" width="242" height="2" fill="#D9D9D9"/>
                <rect id="Rectangle 16" x="379" y="136" width="242" height="2" fill="#D9D9D9"/>
                <rect id="Rectangle 17" x="379" y="103" width="242" height="2" fill="#D9D9D9"/>
                <rect id="Rectangle 18" x="379" y="125" width="242" height="2" fill="#D9D9D9"/>
                <rect id="Rectangle 11" x="379" y="192" width="242" height="2" fill="#D9D9D9"/>
                <rect id="Rectangle 12" x="379" y="214" width="242" height="2" fill="#D9D9D9"/>
                <rect id="Rectangle 13" x="379" y="178" width="242" height="2" fill="#D9D9D9"/>
                <rect id="Rectangle 14" x="379" y="203" width="242" height="2" fill="#D9D9D9"/>
                <g id="Group 2">
                <rect id="Rectangle 19" x="441" y="220" width="121" height="2" transform="rotate(-90 441 220)" fill="#D9D9D9"/>
                <rect id="Rectangle 20" x="463" y="220" width="121" height="2" transform="rotate(-90 463 220)" fill="#D9D9D9"/>
                <rect id="Rectangle 21" x="430" y="220" width="121" height="2" transform="rotate(-90 430 220)" fill="#D9D9D9"/>
                <rect id="Rectangle 22" x="452" y="220" width="121" height="2" transform="rotate(-90 452 220)" fill="#D9D9D9"/>
                <rect id="Rectangle 23" x="398" y="220" width="121" height="2" transform="rotate(-90 398 220)" fill="#D9D9D9"/>
                <rect id="Rectangle 24" x="420" y="220" width="121" height="2" transform="rotate(-90 420 220)" fill="#D9D9D9"/>
                <rect id="Rectangle 25" x="387" y="220" width="121" height="2" transform="rotate(-90 387 220)" fill="#D9D9D9"/>
                <rect id="Rectangle 26" x="409" y="220" width="121" height="2" transform="rotate(-90 409 220)" fill="#D9D9D9"/>
                <rect id="Rectangle 27" x="476" y="220" width="121" height="2" transform="rotate(-90 476 220)" fill="#D9D9D9"/>
                <rect id="Rectangle 28" x="498" y="220" width="121" height="2" transform="rotate(-90 498 220)" fill="#D9D9D9"/>
                <rect id="Rectangle 29" x="462" y="220" width="121" height="2" transform="rotate(-90 462 220)" fill="#D9D9D9"/>
                <rect id="Rectangle 30" x="487" y="220" width="121" height="2" transform="rotate(-90 487 220)" fill="#D9D9D9"/>
                </g>
                <g id="Group 3">
                <rect id="Rectangle 19_2" x="553" y="218" width="121" height="2" transform="rotate(-90 553 218)" fill="#D9D9D9"/>
                <rect id="Rectangle 20_2" x="575" y="218" width="121" height="2" transform="rotate(-90 575 218)" fill="#D9D9D9"/>
                <rect id="Rectangle 21_2" x="542" y="218" width="121" height="2" transform="rotate(-90 542 218)" fill="#D9D9D9"/>
                <rect id="Rectangle 22_2" x="564" y="218" width="121" height="2" transform="rotate(-90 564 218)" fill="#D9D9D9"/>
                <rect id="Rectangle 23_2" x="510" y="218" width="121" height="2" transform="rotate(-90 510 218)" fill="#D9D9D9"/>
                <rect id="Rectangle 24_2" x="532" y="218" width="121" height="2" transform="rotate(-90 532 218)" fill="#D9D9D9"/>
                <rect id="Rectangle 25_2" x="499" y="218" width="121" height="2" transform="rotate(-90 499 218)" fill="#D9D9D9"/>
                <rect id="Rectangle 26_2" x="521" y="218" width="121" height="2" transform="rotate(-90 521 218)" fill="#D9D9D9"/>
                <rect id="Rectangle 27_2" x="588" y="218" width="121" height="2" transform="rotate(-90 588 218)" fill="#D9D9D9"/>
                <rect id="Rectangle 28_2" x="610" y="218" width="121" height="2" transform="rotate(-90 610 218)" fill="#D9D9D9"/>
                <rect id="Rectangle 29_2" x="574" y="218" width="121" height="2" transform="rotate(-90 574 218)" fill="#D9D9D9"/>
                <rect id="Rectangle 30_2" x="599" y="218" width="121" height="2" transform="rotate(-90 599 218)" fill="#D9D9D9"/>
                </g>
                </g>
                <rect id="Rectangle 2" y="218" width="1000" height="7" fill="#D9D9D9"/>
                <rect id="Rectangle 32" x="212" y="362" width="576" height="7" fill="#D9D9D9"/>
                <rect id="Rectangle 33" x="212" y="362" width="137" height="7" transform="rotate(-90 212 362)" fill="#D9D9D9"/>
                <rect id="Rectangle 34" x="781" y="362" width="137" height="7" transform="rotate(-90 781 362)" fill="#D9D9D9"/>
                <g id="Group 1">
                <rect id="Rectangle 3" x="365" y="96.8182" width="12.8182" height="270" transform="rotate(-90 365 96.8182)" fill="#D9D9D9"/>
                <rect id="Rectangle 5" x="365" y="91.6909" width="13.6364" height="128.182" fill="#D9D9D9"/>
                <rect id="Rectangle 4" x="621.364" y="96.8182" width="13.6364" height="128.182" fill="#D9D9D9"/>
                </g>
                <g id="Just save it">
                <path d="M41.78 141.14C40.8 141.14 40.03 140.865 39.47 140.314C38.91 139.763 38.63 139.012 38.63 138.06H39.89C39.89 138.685 40.0533 139.171 40.38 139.516C40.716 139.852 41.1827 140.02 41.78 140.02C42.3773 140.02 42.8393 139.852 43.166 139.516C43.502 139.171 43.67 138.685 43.67 138.06V131.928H41.22V130.78H44.93V138.06C44.93 139.012 44.6453 139.763 44.076 140.314C43.516 140.865 42.7507 141.14 41.78 141.14ZM50.5805 141.14C49.6939 141.14 48.9845 140.879 48.4525 140.356C47.9205 139.824 47.6545 139.105 47.6545 138.2V133.3H48.9145V138.2C48.9145 138.779 49.0639 139.231 49.3625 139.558C49.6612 139.875 50.0672 140.034 50.5805 140.034C51.1032 140.034 51.5139 139.875 51.8125 139.558C52.1205 139.231 52.2745 138.779 52.2745 138.2V133.3H53.5345V138.2C53.5345 139.105 53.2639 139.824 52.7225 140.356C52.1812 140.879 51.4672 141.14 50.5805 141.14ZM58.7511 141.112C58.2284 141.112 57.7711 141.033 57.3791 140.874C56.9964 140.706 56.6884 140.473 56.4551 140.174C56.2311 139.875 56.0957 139.521 56.0491 139.11H57.3091C57.3651 139.381 57.5144 139.595 57.7571 139.754C58.0091 139.913 58.3404 139.992 58.7511 139.992H59.3391C59.8337 139.992 60.2024 139.894 60.4451 139.698C60.6877 139.493 60.8091 139.222 60.8091 138.886C60.8091 138.559 60.6971 138.303 60.4731 138.116C60.2584 137.92 59.9364 137.789 59.5071 137.724L58.4711 137.556C57.7151 137.425 57.1504 137.192 56.7771 136.856C56.4131 136.511 56.2311 136.011 56.2311 135.358C56.2311 134.667 56.4504 134.135 56.8891 133.762C57.3277 133.379 57.9857 133.188 58.8631 133.188H59.3951C60.1324 133.188 60.7251 133.361 61.1731 133.706C61.6211 134.051 61.8917 134.518 61.9851 135.106H60.7251C60.6691 134.863 60.5291 134.672 60.3051 134.532C60.0811 134.383 59.7777 134.308 59.3951 134.308H58.8631C58.3871 134.308 58.0371 134.397 57.8131 134.574C57.5984 134.751 57.4911 135.017 57.4911 135.372C57.4911 135.689 57.5844 135.923 57.7711 136.072C57.9577 136.221 58.2517 136.329 58.6531 136.394L59.6891 136.562C60.5197 136.693 61.1217 136.935 61.4951 137.29C61.8777 137.645 62.0691 138.158 62.0691 138.83C62.0691 139.539 61.8404 140.099 61.3831 140.51C60.9351 140.911 60.2537 141.112 59.3391 141.112H58.7511ZM68.2236 141C67.5609 141 67.0429 140.823 66.6696 140.468C66.3056 140.113 66.1236 139.614 66.1236 138.97V134.448H63.9536V133.3H66.1236V131.13H67.3836V133.3H70.4636V134.448H67.3836V138.97C67.3836 139.558 67.6636 139.852 68.2236 139.852H70.3236V141H68.2236ZM83.9347 141.112C83.412 141.112 82.9547 141.033 82.5627 140.874C82.18 140.706 81.872 140.473 81.6387 140.174C81.4147 139.875 81.2793 139.521 81.2327 139.11H82.4927C82.5487 139.381 82.698 139.595 82.9407 139.754C83.1927 139.913 83.524 139.992 83.9347 139.992H84.5227C85.0173 139.992 85.386 139.894 85.6287 139.698C85.8713 139.493 85.9927 139.222 85.9927 138.886C85.9927 138.559 85.8807 138.303 85.6567 138.116C85.442 137.92 85.12 137.789 84.6907 137.724L83.6547 137.556C82.8987 137.425 82.334 137.192 81.9607 136.856C81.5967 136.511 81.4147 136.011 81.4147 135.358C81.4147 134.667 81.634 134.135 82.0727 133.762C82.5113 133.379 83.1693 133.188 84.0467 133.188H84.5787C85.316 133.188 85.9087 133.361 86.3567 133.706C86.8047 134.051 87.0753 134.518 87.1687 135.106H85.9087C85.8527 134.863 85.7127 134.672 85.4887 134.532C85.2647 134.383 84.9613 134.308 84.5787 134.308H84.0467C83.5707 134.308 83.2207 134.397 82.9967 134.574C82.782 134.751 82.6747 135.017 82.6747 135.372C82.6747 135.689 82.768 135.923 82.9547 136.072C83.1413 136.221 83.4353 136.329 83.8367 136.394L84.8727 136.562C85.7033 136.693 86.3053 136.935 86.6787 137.29C87.0613 137.645 87.2527 138.158 87.2527 138.83C87.2527 139.539 87.024 140.099 86.5667 140.51C86.1187 140.911 85.4373 141.112 84.5227 141.112H83.9347ZM91.8952 141.14C91.0832 141.14 90.4439 140.935 89.9772 140.524C89.5105 140.104 89.2772 139.539 89.2772 138.83C89.2772 138.111 89.5105 137.547 89.9772 137.136C90.4439 136.725 91.0739 136.52 91.8672 136.52H94.2472V135.75C94.2472 135.274 94.1025 134.91 93.8132 134.658C93.5332 134.397 93.1319 134.266 92.6092 134.266C92.1519 134.266 91.7692 134.364 91.4612 134.56C91.1532 134.747 90.9759 135.003 90.9292 135.33H89.6692C89.7532 134.667 90.0659 134.14 90.6072 133.748C91.1485 133.356 91.8252 133.16 92.6372 133.16C93.5239 133.16 94.2239 133.389 94.7372 133.846C95.2505 134.303 95.5072 134.924 95.5072 135.708V141H94.2752V139.53H94.0652L94.2752 139.32C94.2752 139.88 94.0559 140.323 93.6172 140.65C93.1879 140.977 92.6139 141.14 91.8952 141.14ZM92.2032 140.146C92.8005 140.146 93.2905 139.997 93.6732 139.698C94.0559 139.399 94.2472 139.017 94.2472 138.55V137.458H91.8952C91.4752 137.458 91.1439 137.575 90.9012 137.808C90.6585 138.041 90.5372 138.359 90.5372 138.76C90.5372 139.189 90.6819 139.53 90.9712 139.782C91.2699 140.025 91.6805 140.146 92.2032 140.146ZM100.108 141L97.5317 133.3H98.8197L100.528 138.48C100.63 138.788 100.724 139.087 100.808 139.376C100.892 139.656 100.952 139.875 100.99 140.034C101.036 139.875 101.102 139.656 101.186 139.376C101.27 139.087 101.358 138.788 101.452 138.48L103.118 133.3H104.392L101.816 141H100.108ZM109.356 141.14C108.75 141.14 108.218 141.019 107.76 140.776C107.312 140.533 106.962 140.193 106.71 139.754C106.468 139.306 106.346 138.788 106.346 138.2V136.1C106.346 135.503 106.468 134.985 106.71 134.546C106.962 134.107 107.312 133.767 107.76 133.524C108.218 133.281 108.75 133.16 109.356 133.16C109.963 133.16 110.49 133.281 110.938 133.524C111.396 133.767 111.746 134.107 111.988 134.546C112.24 134.985 112.366 135.503 112.366 136.1V137.458H107.578V138.2C107.578 138.807 107.732 139.273 108.04 139.6C108.348 139.917 108.787 140.076 109.356 140.076C109.842 140.076 110.234 139.992 110.532 139.824C110.831 139.647 111.013 139.385 111.078 139.04H112.338C112.254 139.684 111.937 140.197 111.386 140.58C110.845 140.953 110.168 141.14 109.356 141.14ZM111.134 136.618V136.1C111.134 135.493 110.98 135.027 110.672 134.7C110.374 134.373 109.935 134.21 109.356 134.21C108.787 134.21 108.348 134.373 108.04 134.7C107.732 135.027 107.578 135.493 107.578 136.1V136.506H111.232L111.134 136.618ZM123.135 141V139.852H125.865V134.448H123.485V133.3H127.125V139.852H129.715V141H123.135ZM126.355 131.914C126.047 131.914 125.805 131.835 125.627 131.676C125.45 131.517 125.361 131.303 125.361 131.032C125.361 130.752 125.45 130.533 125.627 130.374C125.805 130.206 126.047 130.122 126.355 130.122C126.663 130.122 126.906 130.206 127.083 130.374C127.261 130.533 127.349 130.752 127.349 131.032C127.349 131.303 127.261 131.517 127.083 131.676C126.906 131.835 126.663 131.914 126.355 131.914ZM135.38 141C134.717 141 134.199 140.823 133.826 140.468C133.462 140.113 133.28 139.614 133.28 138.97V134.448H131.11V133.3H133.28V131.13H134.54V133.3H137.62V134.448H134.54V138.97C134.54 139.558 134.82 139.852 135.38 139.852H137.48V141H135.38Z" fill="white"/>
                <path d="M41.78 141.14C40.8 141.14 40.03 140.865 39.47 140.314C38.91 139.763 38.63 139.012 38.63 138.06H39.89C39.89 138.685 40.0533 139.171 40.38 139.516C40.716 139.852 41.1827 140.02 41.78 140.02C42.3773 140.02 42.8393 139.852 43.166 139.516C43.502 139.171 43.67 138.685 43.67 138.06V131.928H41.22V130.78H44.93V138.06C44.93 139.012 44.6453 139.763 44.076 140.314C43.516 140.865 42.7507 141.14 41.78 141.14ZM50.5805 141.14C49.6939 141.14 48.9845 140.879 48.4525 140.356C47.9205 139.824 47.6545 139.105 47.6545 138.2V133.3H48.9145V138.2C48.9145 138.779 49.0639 139.231 49.3625 139.558C49.6612 139.875 50.0672 140.034 50.5805 140.034C51.1032 140.034 51.5139 139.875 51.8125 139.558C52.1205 139.231 52.2745 138.779 52.2745 138.2V133.3H53.5345V138.2C53.5345 139.105 53.2639 139.824 52.7225 140.356C52.1812 140.879 51.4672 141.14 50.5805 141.14ZM58.7511 141.112C58.2284 141.112 57.7711 141.033 57.3791 140.874C56.9964 140.706 56.6884 140.473 56.4551 140.174C56.2311 139.875 56.0957 139.521 56.0491 139.11H57.3091C57.3651 139.381 57.5144 139.595 57.7571 139.754C58.0091 139.913 58.3404 139.992 58.7511 139.992H59.3391C59.8337 139.992 60.2024 139.894 60.4451 139.698C60.6877 139.493 60.8091 139.222 60.8091 138.886C60.8091 138.559 60.6971 138.303 60.4731 138.116C60.2584 137.92 59.9364 137.789 59.5071 137.724L58.4711 137.556C57.7151 137.425 57.1504 137.192 56.7771 136.856C56.4131 136.511 56.2311 136.011 56.2311 135.358C56.2311 134.667 56.4504 134.135 56.8891 133.762C57.3277 133.379 57.9857 133.188 58.8631 133.188H59.3951C60.1324 133.188 60.7251 133.361 61.1731 133.706C61.6211 134.051 61.8917 134.518 61.9851 135.106H60.7251C60.6691 134.863 60.5291 134.672 60.3051 134.532C60.0811 134.383 59.7777 134.308 59.3951 134.308H58.8631C58.3871 134.308 58.0371 134.397 57.8131 134.574C57.5984 134.751 57.4911 135.017 57.4911 135.372C57.4911 135.689 57.5844 135.923 57.7711 136.072C57.9577 136.221 58.2517 136.329 58.6531 136.394L59.6891 136.562C60.5197 136.693 61.1217 136.935 61.4951 137.29C61.8777 137.645 62.0691 138.158 62.0691 138.83C62.0691 139.539 61.8404 140.099 61.3831 140.51C60.9351 140.911 60.2537 141.112 59.3391 141.112H58.7511ZM68.2236 141C67.5609 141 67.0429 140.823 66.6696 140.468C66.3056 140.113 66.1236 139.614 66.1236 138.97V134.448H63.9536V133.3H66.1236V131.13H67.3836V133.3H70.4636V134.448H67.3836V138.97C67.3836 139.558 67.6636 139.852 68.2236 139.852H70.3236V141H68.2236ZM83.9347 141.112C83.412 141.112 82.9547 141.033 82.5627 140.874C82.18 140.706 81.872 140.473 81.6387 140.174C81.4147 139.875 81.2793 139.521 81.2327 139.11H82.4927C82.5487 139.381 82.698 139.595 82.9407 139.754C83.1927 139.913 83.524 139.992 83.9347 139.992H84.5227C85.0173 139.992 85.386 139.894 85.6287 139.698C85.8713 139.493 85.9927 139.222 85.9927 138.886C85.9927 138.559 85.8807 138.303 85.6567 138.116C85.442 137.92 85.12 137.789 84.6907 137.724L83.6547 137.556C82.8987 137.425 82.334 137.192 81.9607 136.856C81.5967 136.511 81.4147 136.011 81.4147 135.358C81.4147 134.667 81.634 134.135 82.0727 133.762C82.5113 133.379 83.1693 133.188 84.0467 133.188H84.5787C85.316 133.188 85.9087 133.361 86.3567 133.706C86.8047 134.051 87.0753 134.518 87.1687 135.106H85.9087C85.8527 134.863 85.7127 134.672 85.4887 134.532C85.2647 134.383 84.9613 134.308 84.5787 134.308H84.0467C83.5707 134.308 83.2207 134.397 82.9967 134.574C82.782 134.751 82.6747 135.017 82.6747 135.372C82.6747 135.689 82.768 135.923 82.9547 136.072C83.1413 136.221 83.4353 136.329 83.8367 136.394L84.8727 136.562C85.7033 136.693 86.3053 136.935 86.6787 137.29C87.0613 137.645 87.2527 138.158 87.2527 138.83C87.2527 139.539 87.024 140.099 86.5667 140.51C86.1187 140.911 85.4373 141.112 84.5227 141.112H83.9347ZM91.8952 141.14C91.0832 141.14 90.4439 140.935 89.9772 140.524C89.5105 140.104 89.2772 139.539 89.2772 138.83C89.2772 138.111 89.5105 137.547 89.9772 137.136C90.4439 136.725 91.0739 136.52 91.8672 136.52H94.2472V135.75C94.2472 135.274 94.1025 134.91 93.8132 134.658C93.5332 134.397 93.1319 134.266 92.6092 134.266C92.1519 134.266 91.7692 134.364 91.4612 134.56C91.1532 134.747 90.9759 135.003 90.9292 135.33H89.6692C89.7532 134.667 90.0659 134.14 90.6072 133.748C91.1485 133.356 91.8252 133.16 92.6372 133.16C93.5239 133.16 94.2239 133.389 94.7372 133.846C95.2505 134.303 95.5072 134.924 95.5072 135.708V141H94.2752V139.53H94.0652L94.2752 139.32C94.2752 139.88 94.0559 140.323 93.6172 140.65C93.1879 140.977 92.6139 141.14 91.8952 141.14ZM92.2032 140.146C92.8005 140.146 93.2905 139.997 93.6732 139.698C94.0559 139.399 94.2472 139.017 94.2472 138.55V137.458H91.8952C91.4752 137.458 91.1439 137.575 90.9012 137.808C90.6585 138.041 90.5372 138.359 90.5372 138.76C90.5372 139.189 90.6819 139.53 90.9712 139.782C91.2699 140.025 91.6805 140.146 92.2032 140.146ZM100.108 141L97.5317 133.3H98.8197L100.528 138.48C100.63 138.788 100.724 139.087 100.808 139.376C100.892 139.656 100.952 139.875 100.99 140.034C101.036 139.875 101.102 139.656 101.186 139.376C101.27 139.087 101.358 138.788 101.452 138.48L103.118 133.3H104.392L101.816 141H100.108ZM109.356 141.14C108.75 141.14 108.218 141.019 107.76 140.776C107.312 140.533 106.962 140.193 106.71 139.754C106.468 139.306 106.346 138.788 106.346 138.2V136.1C106.346 135.503 106.468 134.985 106.71 134.546C106.962 134.107 107.312 133.767 107.76 133.524C108.218 133.281 108.75 133.16 109.356 133.16C109.963 133.16 110.49 133.281 110.938 133.524C111.396 133.767 111.746 134.107 111.988 134.546C112.24 134.985 112.366 135.503 112.366 136.1V137.458H107.578V138.2C107.578 138.807 107.732 139.273 108.04 139.6C108.348 139.917 108.787 140.076 109.356 140.076C109.842 140.076 110.234 139.992 110.532 139.824C110.831 139.647 111.013 139.385 111.078 139.04H112.338C112.254 139.684 111.937 140.197 111.386 140.58C110.845 140.953 110.168 141.14 109.356 141.14ZM111.134 136.618V136.1C111.134 135.493 110.98 135.027 110.672 134.7C110.374 134.373 109.935 134.21 109.356 134.21C108.787 134.21 108.348 134.373 108.04 134.7C107.732 135.027 107.578 135.493 107.578 136.1V136.506H111.232L111.134 136.618ZM123.135 141V139.852H125.865V134.448H123.485V133.3H127.125V139.852H129.715V141H123.135ZM126.355 131.914C126.047 131.914 125.805 131.835 125.627 131.676C125.45 131.517 125.361 131.303 125.361 131.032C125.361 130.752 125.45 130.533 125.627 130.374C125.805 130.206 126.047 130.122 126.355 130.122C126.663 130.122 126.906 130.206 127.083 130.374C127.261 130.533 127.349 130.752 127.349 131.032C127.349 131.303 127.261 131.517 127.083 131.676C126.906 131.835 126.663 131.914 126.355 131.914ZM135.38 141C134.717 141 134.199 140.823 133.826 140.468C133.462 140.113 133.28 139.614 133.28 138.97V134.448H131.11V133.3H133.28V131.13H134.54V133.3H137.62V134.448H134.54V138.97C134.54 139.558 134.82 139.852 135.38 139.852H137.48V141H135.38Z" fill="black" fill-opacity="0.2"/>
                </g>
                <g id="J">
                <path d="M992.78 139.14C991.8 139.14 991.03 138.865 990.47 138.314C989.91 137.763 989.63 137.012 989.63 136.06H990.89C990.89 136.685 991.053 137.171 991.38 137.516C991.716 137.852 992.183 138.02 992.78 138.02C993.377 138.02 993.839 137.852 994.166 137.516C994.502 137.171 994.67 136.685 994.67 136.06V129.928H992.22V128.78H995.93V136.06C995.93 137.012 995.645 137.763 995.076 138.314C994.516 138.865 993.751 139.14 992.78 139.14Z" fill="white"/>
                <path d="M992.78 139.14C991.8 139.14 991.03 138.865 990.47 138.314C989.91 137.763 989.63 137.012 989.63 136.06H990.89C990.89 136.685 991.053 137.171 991.38 137.516C991.716 137.852 992.183 138.02 992.78 138.02C993.377 138.02 993.839 137.852 994.166 137.516C994.502 137.171 994.67 136.685 994.67 136.06V129.928H992.22V128.78H995.93V136.06C995.93 137.012 995.645 137.763 995.076 138.314C994.516 138.865 993.751 139.14 992.78 139.14Z" fill="black" fill-opacity="0.2"/>
                </g>
                <g id="Just save it_2">
                <path d="M690.78 141.14C689.8 141.14 689.03 140.865 688.47 140.314C687.91 139.763 687.63 139.012 687.63 138.06H688.89C688.89 138.685 689.053 139.171 689.38 139.516C689.716 139.852 690.183 140.02 690.78 140.02C691.377 140.02 691.839 139.852 692.166 139.516C692.502 139.171 692.67 138.685 692.67 138.06V131.928H690.22V130.78H693.93V138.06C693.93 139.012 693.645 139.763 693.076 140.314C692.516 140.865 691.751 141.14 690.78 141.14ZM699.581 141.14C698.694 141.14 697.985 140.879 697.453 140.356C696.921 139.824 696.655 139.105 696.655 138.2V133.3H697.915V138.2C697.915 138.779 698.064 139.231 698.363 139.558C698.661 139.875 699.067 140.034 699.581 140.034C700.103 140.034 700.514 139.875 700.813 139.558C701.121 139.231 701.275 138.779 701.275 138.2V133.3H702.535V138.2C702.535 139.105 702.264 139.824 701.723 140.356C701.181 140.879 700.467 141.14 699.581 141.14ZM707.751 141.112C707.228 141.112 706.771 141.033 706.379 140.874C705.996 140.706 705.688 140.473 705.455 140.174C705.231 139.875 705.096 139.521 705.049 139.11H706.309C706.365 139.381 706.514 139.595 706.757 139.754C707.009 139.913 707.34 139.992 707.751 139.992H708.339C708.834 139.992 709.202 139.894 709.445 139.698C709.688 139.493 709.809 139.222 709.809 138.886C709.809 138.559 709.697 138.303 709.473 138.116C709.258 137.92 708.936 137.789 708.507 137.724L707.471 137.556C706.715 137.425 706.15 137.192 705.777 136.856C705.413 136.511 705.231 136.011 705.231 135.358C705.231 134.667 705.45 134.135 705.889 133.762C706.328 133.379 706.986 133.188 707.863 133.188H708.395C709.132 133.188 709.725 133.361 710.173 133.706C710.621 134.051 710.892 134.518 710.985 135.106H709.725C709.669 134.863 709.529 134.672 709.305 134.532C709.081 134.383 708.778 134.308 708.395 134.308H707.863C707.387 134.308 707.037 134.397 706.813 134.574C706.598 134.751 706.491 135.017 706.491 135.372C706.491 135.689 706.584 135.923 706.771 136.072C706.958 136.221 707.252 136.329 707.653 136.394L708.689 136.562C709.52 136.693 710.122 136.935 710.495 137.29C710.878 137.645 711.069 138.158 711.069 138.83C711.069 139.539 710.84 140.099 710.383 140.51C709.935 140.911 709.254 141.112 708.339 141.112H707.751ZM717.224 141C716.561 141 716.043 140.823 715.67 140.468C715.306 140.113 715.124 139.614 715.124 138.97V134.448H712.954V133.3H715.124V131.13H716.384V133.3H719.464V134.448H716.384V138.97C716.384 139.558 716.664 139.852 717.224 139.852H719.324V141H717.224ZM732.935 141.112C732.412 141.112 731.955 141.033 731.563 140.874C731.18 140.706 730.872 140.473 730.639 140.174C730.415 139.875 730.279 139.521 730.233 139.11H731.493C731.549 139.381 731.698 139.595 731.941 139.754C732.193 139.913 732.524 139.992 732.935 139.992H733.523C734.017 139.992 734.386 139.894 734.629 139.698C734.871 139.493 734.993 139.222 734.993 138.886C734.993 138.559 734.881 138.303 734.657 138.116C734.442 137.92 734.12 137.789 733.691 137.724L732.655 137.556C731.899 137.425 731.334 137.192 730.961 136.856C730.597 136.511 730.415 136.011 730.415 135.358C730.415 134.667 730.634 134.135 731.073 133.762C731.511 133.379 732.169 133.188 733.047 133.188H733.579C734.316 133.188 734.909 133.361 735.357 133.706C735.805 134.051 736.075 134.518 736.169 135.106H734.909C734.853 134.863 734.713 134.672 734.489 134.532C734.265 134.383 733.961 134.308 733.579 134.308H733.047C732.571 134.308 732.221 134.397 731.997 134.574C731.782 134.751 731.675 135.017 731.675 135.372C731.675 135.689 731.768 135.923 731.955 136.072C732.141 136.221 732.435 136.329 732.837 136.394L733.873 136.562C734.703 136.693 735.305 136.935 735.679 137.29C736.061 137.645 736.253 138.158 736.253 138.83C736.253 139.539 736.024 140.099 735.567 140.51C735.119 140.911 734.437 141.112 733.523 141.112H732.935ZM740.895 141.14C740.083 141.14 739.444 140.935 738.977 140.524C738.511 140.104 738.277 139.539 738.277 138.83C738.277 138.111 738.511 137.547 738.977 137.136C739.444 136.725 740.074 136.52 740.867 136.52H743.247V135.75C743.247 135.274 743.103 134.91 742.813 134.658C742.533 134.397 742.132 134.266 741.609 134.266C741.152 134.266 740.769 134.364 740.461 134.56C740.153 134.747 739.976 135.003 739.929 135.33H738.669C738.753 134.667 739.066 134.14 739.607 133.748C740.149 133.356 740.825 133.16 741.637 133.16C742.524 133.16 743.224 133.389 743.737 133.846C744.251 134.303 744.507 134.924 744.507 135.708V141H743.275V139.53H743.065L743.275 139.32C743.275 139.88 743.056 140.323 742.617 140.65C742.188 140.977 741.614 141.14 740.895 141.14ZM741.203 140.146C741.801 140.146 742.291 139.997 742.673 139.698C743.056 139.399 743.247 139.017 743.247 138.55V137.458H740.895C740.475 137.458 740.144 137.575 739.901 137.808C739.659 138.041 739.537 138.359 739.537 138.76C739.537 139.189 739.682 139.53 739.971 139.782C740.27 140.025 740.681 140.146 741.203 140.146ZM749.108 141L746.532 133.3H747.82L749.528 138.48C749.63 138.788 749.724 139.087 749.808 139.376C749.892 139.656 749.952 139.875 749.99 140.034C750.036 139.875 750.102 139.656 750.186 139.376C750.27 139.087 750.358 138.788 750.452 138.48L752.118 133.3H753.392L750.816 141H749.108ZM758.356 141.14C757.75 141.14 757.218 141.019 756.76 140.776C756.312 140.533 755.962 140.193 755.71 139.754C755.468 139.306 755.346 138.788 755.346 138.2V136.1C755.346 135.503 755.468 134.985 755.71 134.546C755.962 134.107 756.312 133.767 756.76 133.524C757.218 133.281 757.75 133.16 758.356 133.16C758.963 133.16 759.49 133.281 759.938 133.524C760.396 133.767 760.746 134.107 760.988 134.546C761.24 134.985 761.366 135.503 761.366 136.1V137.458H756.578V138.2C756.578 138.807 756.732 139.273 757.04 139.6C757.348 139.917 757.787 140.076 758.356 140.076C758.842 140.076 759.234 139.992 759.532 139.824C759.831 139.647 760.013 139.385 760.078 139.04H761.338C761.254 139.684 760.937 140.197 760.386 140.58C759.845 140.953 759.168 141.14 758.356 141.14ZM760.134 136.618V136.1C760.134 135.493 759.98 135.027 759.672 134.7C759.374 134.373 758.935 134.21 758.356 134.21C757.787 134.21 757.348 134.373 757.04 134.7C756.732 135.027 756.578 135.493 756.578 136.1V136.506H760.232L760.134 136.618ZM772.135 141V139.852H774.865V134.448H772.485V133.3H776.125V139.852H778.715V141H772.135ZM775.355 131.914C775.047 131.914 774.805 131.835 774.627 131.676C774.45 131.517 774.361 131.303 774.361 131.032C774.361 130.752 774.45 130.533 774.627 130.374C774.805 130.206 775.047 130.122 775.355 130.122C775.663 130.122 775.906 130.206 776.083 130.374C776.261 130.533 776.349 130.752 776.349 131.032C776.349 131.303 776.261 131.517 776.083 131.676C775.906 131.835 775.663 131.914 775.355 131.914ZM784.38 141C783.717 141 783.199 140.823 782.826 140.468C782.462 140.113 782.28 139.614 782.28 138.97V134.448H780.11V133.3H782.28V131.13H783.54V133.3H786.62V134.448H783.54V138.97C783.54 139.558 783.82 139.852 784.38 139.852H786.48V141H784.38Z" fill="white"/>
                <path d="M690.78 141.14C689.8 141.14 689.03 140.865 688.47 140.314C687.91 139.763 687.63 139.012 687.63 138.06H688.89C688.89 138.685 689.053 139.171 689.38 139.516C689.716 139.852 690.183 140.02 690.78 140.02C691.377 140.02 691.839 139.852 692.166 139.516C692.502 139.171 692.67 138.685 692.67 138.06V131.928H690.22V130.78H693.93V138.06C693.93 139.012 693.645 139.763 693.076 140.314C692.516 140.865 691.751 141.14 690.78 141.14ZM699.581 141.14C698.694 141.14 697.985 140.879 697.453 140.356C696.921 139.824 696.655 139.105 696.655 138.2V133.3H697.915V138.2C697.915 138.779 698.064 139.231 698.363 139.558C698.661 139.875 699.067 140.034 699.581 140.034C700.103 140.034 700.514 139.875 700.813 139.558C701.121 139.231 701.275 138.779 701.275 138.2V133.3H702.535V138.2C702.535 139.105 702.264 139.824 701.723 140.356C701.181 140.879 700.467 141.14 699.581 141.14ZM707.751 141.112C707.228 141.112 706.771 141.033 706.379 140.874C705.996 140.706 705.688 140.473 705.455 140.174C705.231 139.875 705.096 139.521 705.049 139.11H706.309C706.365 139.381 706.514 139.595 706.757 139.754C707.009 139.913 707.34 139.992 707.751 139.992H708.339C708.834 139.992 709.202 139.894 709.445 139.698C709.688 139.493 709.809 139.222 709.809 138.886C709.809 138.559 709.697 138.303 709.473 138.116C709.258 137.92 708.936 137.789 708.507 137.724L707.471 137.556C706.715 137.425 706.15 137.192 705.777 136.856C705.413 136.511 705.231 136.011 705.231 135.358C705.231 134.667 705.45 134.135 705.889 133.762C706.328 133.379 706.986 133.188 707.863 133.188H708.395C709.132 133.188 709.725 133.361 710.173 133.706C710.621 134.051 710.892 134.518 710.985 135.106H709.725C709.669 134.863 709.529 134.672 709.305 134.532C709.081 134.383 708.778 134.308 708.395 134.308H707.863C707.387 134.308 707.037 134.397 706.813 134.574C706.598 134.751 706.491 135.017 706.491 135.372C706.491 135.689 706.584 135.923 706.771 136.072C706.958 136.221 707.252 136.329 707.653 136.394L708.689 136.562C709.52 136.693 710.122 136.935 710.495 137.29C710.878 137.645 711.069 138.158 711.069 138.83C711.069 139.539 710.84 140.099 710.383 140.51C709.935 140.911 709.254 141.112 708.339 141.112H707.751ZM717.224 141C716.561 141 716.043 140.823 715.67 140.468C715.306 140.113 715.124 139.614 715.124 138.97V134.448H712.954V133.3H715.124V131.13H716.384V133.3H719.464V134.448H716.384V138.97C716.384 139.558 716.664 139.852 717.224 139.852H719.324V141H717.224ZM732.935 141.112C732.412 141.112 731.955 141.033 731.563 140.874C731.18 140.706 730.872 140.473 730.639 140.174C730.415 139.875 730.279 139.521 730.233 139.11H731.493C731.549 139.381 731.698 139.595 731.941 139.754C732.193 139.913 732.524 139.992 732.935 139.992H733.523C734.017 139.992 734.386 139.894 734.629 139.698C734.871 139.493 734.993 139.222 734.993 138.886C734.993 138.559 734.881 138.303 734.657 138.116C734.442 137.92 734.12 137.789 733.691 137.724L732.655 137.556C731.899 137.425 731.334 137.192 730.961 136.856C730.597 136.511 730.415 136.011 730.415 135.358C730.415 134.667 730.634 134.135 731.073 133.762C731.511 133.379 732.169 133.188 733.047 133.188H733.579C734.316 133.188 734.909 133.361 735.357 133.706C735.805 134.051 736.075 134.518 736.169 135.106H734.909C734.853 134.863 734.713 134.672 734.489 134.532C734.265 134.383 733.961 134.308 733.579 134.308H733.047C732.571 134.308 732.221 134.397 731.997 134.574C731.782 134.751 731.675 135.017 731.675 135.372C731.675 135.689 731.768 135.923 731.955 136.072C732.141 136.221 732.435 136.329 732.837 136.394L733.873 136.562C734.703 136.693 735.305 136.935 735.679 137.29C736.061 137.645 736.253 138.158 736.253 138.83C736.253 139.539 736.024 140.099 735.567 140.51C735.119 140.911 734.437 141.112 733.523 141.112H732.935ZM740.895 141.14C740.083 141.14 739.444 140.935 738.977 140.524C738.511 140.104 738.277 139.539 738.277 138.83C738.277 138.111 738.511 137.547 738.977 137.136C739.444 136.725 740.074 136.52 740.867 136.52H743.247V135.75C743.247 135.274 743.103 134.91 742.813 134.658C742.533 134.397 742.132 134.266 741.609 134.266C741.152 134.266 740.769 134.364 740.461 134.56C740.153 134.747 739.976 135.003 739.929 135.33H738.669C738.753 134.667 739.066 134.14 739.607 133.748C740.149 133.356 740.825 133.16 741.637 133.16C742.524 133.16 743.224 133.389 743.737 133.846C744.251 134.303 744.507 134.924 744.507 135.708V141H743.275V139.53H743.065L743.275 139.32C743.275 139.88 743.056 140.323 742.617 140.65C742.188 140.977 741.614 141.14 740.895 141.14ZM741.203 140.146C741.801 140.146 742.291 139.997 742.673 139.698C743.056 139.399 743.247 139.017 743.247 138.55V137.458H740.895C740.475 137.458 740.144 137.575 739.901 137.808C739.659 138.041 739.537 138.359 739.537 138.76C739.537 139.189 739.682 139.53 739.971 139.782C740.27 140.025 740.681 140.146 741.203 140.146ZM749.108 141L746.532 133.3H747.82L749.528 138.48C749.63 138.788 749.724 139.087 749.808 139.376C749.892 139.656 749.952 139.875 749.99 140.034C750.036 139.875 750.102 139.656 750.186 139.376C750.27 139.087 750.358 138.788 750.452 138.48L752.118 133.3H753.392L750.816 141H749.108ZM758.356 141.14C757.75 141.14 757.218 141.019 756.76 140.776C756.312 140.533 755.962 140.193 755.71 139.754C755.468 139.306 755.346 138.788 755.346 138.2V136.1C755.346 135.503 755.468 134.985 755.71 134.546C755.962 134.107 756.312 133.767 756.76 133.524C757.218 133.281 757.75 133.16 758.356 133.16C758.963 133.16 759.49 133.281 759.938 133.524C760.396 133.767 760.746 134.107 760.988 134.546C761.24 134.985 761.366 135.503 761.366 136.1V137.458H756.578V138.2C756.578 138.807 756.732 139.273 757.04 139.6C757.348 139.917 757.787 140.076 758.356 140.076C758.842 140.076 759.234 139.992 759.532 139.824C759.831 139.647 760.013 139.385 760.078 139.04H761.338C761.254 139.684 760.937 140.197 760.386 140.58C759.845 140.953 759.168 141.14 758.356 141.14ZM760.134 136.618V136.1C760.134 135.493 759.98 135.027 759.672 134.7C759.374 134.373 758.935 134.21 758.356 134.21C757.787 134.21 757.348 134.373 757.04 134.7C756.732 135.027 756.578 135.493 756.578 136.1V136.506H760.232L760.134 136.618ZM772.135 141V139.852H774.865V134.448H772.485V133.3H776.125V139.852H778.715V141H772.135ZM775.355 131.914C775.047 131.914 774.805 131.835 774.627 131.676C774.45 131.517 774.361 131.303 774.361 131.032C774.361 130.752 774.45 130.533 774.627 130.374C774.805 130.206 775.047 130.122 775.355 130.122C775.663 130.122 775.906 130.206 776.083 130.374C776.261 130.533 776.349 130.752 776.349 131.032C776.349 131.303 776.261 131.517 776.083 131.676C775.906 131.835 775.663 131.914 775.355 131.914ZM784.38 141C783.717 141 783.199 140.823 782.826 140.468C782.462 140.113 782.28 139.614 782.28 138.97V134.448H780.11V133.3H782.28V131.13H783.54V133.3H786.62V134.448H783.54V138.97C783.54 139.558 783.82 139.852 784.38 139.852H786.48V141H784.38Z" fill="black" fill-opacity="0.2"/>
                </g>
                <g id="Just save it_3">
                <path d="M365.78 141.14C364.8 141.14 364.03 140.865 363.47 140.314C362.91 139.763 362.63 139.012 362.63 138.06H363.89C363.89 138.685 364.053 139.171 364.38 139.516C364.716 139.852 365.183 140.02 365.78 140.02C366.377 140.02 366.839 139.852 367.166 139.516C367.502 139.171 367.67 138.685 367.67 138.06V131.928H365.22V130.78H368.93V138.06C368.93 139.012 368.645 139.763 368.076 140.314C367.516 140.865 366.751 141.14 365.78 141.14ZM374.581 141.14C373.694 141.14 372.985 140.879 372.453 140.356C371.921 139.824 371.655 139.105 371.655 138.2V133.3H372.915V138.2C372.915 138.779 373.064 139.231 373.363 139.558C373.661 139.875 374.067 140.034 374.581 140.034C375.103 140.034 375.514 139.875 375.813 139.558C376.121 139.231 376.275 138.779 376.275 138.2V133.3H377.535V138.2C377.535 139.105 377.264 139.824 376.723 140.356C376.181 140.879 375.467 141.14 374.581 141.14ZM382.751 141.112C382.228 141.112 381.771 141.033 381.379 140.874C380.996 140.706 380.688 140.473 380.455 140.174C380.231 139.875 380.096 139.521 380.049 139.11H381.309C381.365 139.381 381.514 139.595 381.757 139.754C382.009 139.913 382.34 139.992 382.751 139.992H383.339C383.834 139.992 384.202 139.894 384.445 139.698C384.688 139.493 384.809 139.222 384.809 138.886C384.809 138.559 384.697 138.303 384.473 138.116C384.258 137.92 383.936 137.789 383.507 137.724L382.471 137.556C381.715 137.425 381.15 137.192 380.777 136.856C380.413 136.511 380.231 136.011 380.231 135.358C380.231 134.667 380.45 134.135 380.889 133.762C381.328 133.379 381.986 133.188 382.863 133.188H383.395C384.132 133.188 384.725 133.361 385.173 133.706C385.621 134.051 385.892 134.518 385.985 135.106H384.725C384.669 134.863 384.529 134.672 384.305 134.532C384.081 134.383 383.778 134.308 383.395 134.308H382.863C382.387 134.308 382.037 134.397 381.813 134.574C381.598 134.751 381.491 135.017 381.491 135.372C381.491 135.689 381.584 135.923 381.771 136.072C381.958 136.221 382.252 136.329 382.653 136.394L383.689 136.562C384.52 136.693 385.122 136.935 385.495 137.29C385.878 137.645 386.069 138.158 386.069 138.83C386.069 139.539 385.84 140.099 385.383 140.51C384.935 140.911 384.254 141.112 383.339 141.112H382.751ZM392.224 141C391.561 141 391.043 140.823 390.67 140.468C390.306 140.113 390.124 139.614 390.124 138.97V134.448H387.954V133.3H390.124V131.13H391.384V133.3H394.464V134.448H391.384V138.97C391.384 139.558 391.664 139.852 392.224 139.852H394.324V141H392.224ZM407.935 141.112C407.412 141.112 406.955 141.033 406.563 140.874C406.18 140.706 405.872 140.473 405.639 140.174C405.415 139.875 405.279 139.521 405.233 139.11H406.493C406.549 139.381 406.698 139.595 406.941 139.754C407.193 139.913 407.524 139.992 407.935 139.992H408.523C409.017 139.992 409.386 139.894 409.629 139.698C409.871 139.493 409.993 139.222 409.993 138.886C409.993 138.559 409.881 138.303 409.657 138.116C409.442 137.92 409.12 137.789 408.691 137.724L407.655 137.556C406.899 137.425 406.334 137.192 405.961 136.856C405.597 136.511 405.415 136.011 405.415 135.358C405.415 134.667 405.634 134.135 406.073 133.762C406.511 133.379 407.169 133.188 408.047 133.188H408.579C409.316 133.188 409.909 133.361 410.357 133.706C410.805 134.051 411.075 134.518 411.169 135.106H409.909C409.853 134.863 409.713 134.672 409.489 134.532C409.265 134.383 408.961 134.308 408.579 134.308H408.047C407.571 134.308 407.221 134.397 406.997 134.574C406.782 134.751 406.675 135.017 406.675 135.372C406.675 135.689 406.768 135.923 406.955 136.072C407.141 136.221 407.435 136.329 407.837 136.394L408.873 136.562C409.703 136.693 410.305 136.935 410.679 137.29C411.061 137.645 411.253 138.158 411.253 138.83C411.253 139.539 411.024 140.099 410.567 140.51C410.119 140.911 409.437 141.112 408.523 141.112H407.935ZM415.895 141.14C415.083 141.14 414.444 140.935 413.977 140.524C413.511 140.104 413.277 139.539 413.277 138.83C413.277 138.111 413.511 137.547 413.977 137.136C414.444 136.725 415.074 136.52 415.867 136.52H418.247V135.75C418.247 135.274 418.103 134.91 417.813 134.658C417.533 134.397 417.132 134.266 416.609 134.266C416.152 134.266 415.769 134.364 415.461 134.56C415.153 134.747 414.976 135.003 414.929 135.33H413.669C413.753 134.667 414.066 134.14 414.607 133.748C415.149 133.356 415.825 133.16 416.637 133.16C417.524 133.16 418.224 133.389 418.737 133.846C419.251 134.303 419.507 134.924 419.507 135.708V141H418.275V139.53H418.065L418.275 139.32C418.275 139.88 418.056 140.323 417.617 140.65C417.188 140.977 416.614 141.14 415.895 141.14ZM416.203 140.146C416.801 140.146 417.291 139.997 417.673 139.698C418.056 139.399 418.247 139.017 418.247 138.55V137.458H415.895C415.475 137.458 415.144 137.575 414.901 137.808C414.659 138.041 414.537 138.359 414.537 138.76C414.537 139.189 414.682 139.53 414.971 139.782C415.27 140.025 415.681 140.146 416.203 140.146ZM424.108 141L421.532 133.3H422.82L424.528 138.48C424.63 138.788 424.724 139.087 424.808 139.376C424.892 139.656 424.952 139.875 424.99 140.034C425.036 139.875 425.102 139.656 425.186 139.376C425.27 139.087 425.358 138.788 425.452 138.48L427.118 133.3H428.392L425.816 141H424.108ZM433.356 141.14C432.75 141.14 432.218 141.019 431.76 140.776C431.312 140.533 430.962 140.193 430.71 139.754C430.468 139.306 430.346 138.788 430.346 138.2V136.1C430.346 135.503 430.468 134.985 430.71 134.546C430.962 134.107 431.312 133.767 431.76 133.524C432.218 133.281 432.75 133.16 433.356 133.16C433.963 133.16 434.49 133.281 434.938 133.524C435.396 133.767 435.746 134.107 435.988 134.546C436.24 134.985 436.366 135.503 436.366 136.1V137.458H431.578V138.2C431.578 138.807 431.732 139.273 432.04 139.6C432.348 139.917 432.787 140.076 433.356 140.076C433.842 140.076 434.234 139.992 434.532 139.824C434.831 139.647 435.013 139.385 435.078 139.04H436.338C436.254 139.684 435.937 140.197 435.386 140.58C434.845 140.953 434.168 141.14 433.356 141.14ZM435.134 136.618V136.1C435.134 135.493 434.98 135.027 434.672 134.7C434.374 134.373 433.935 134.21 433.356 134.21C432.787 134.21 432.348 134.373 432.04 134.7C431.732 135.027 431.578 135.493 431.578 136.1V136.506H435.232L435.134 136.618ZM447.135 141V139.852H449.865V134.448H447.485V133.3H451.125V139.852H453.715V141H447.135ZM450.355 131.914C450.047 131.914 449.805 131.835 449.627 131.676C449.45 131.517 449.361 131.303 449.361 131.032C449.361 130.752 449.45 130.533 449.627 130.374C449.805 130.206 450.047 130.122 450.355 130.122C450.663 130.122 450.906 130.206 451.083 130.374C451.261 130.533 451.349 130.752 451.349 131.032C451.349 131.303 451.261 131.517 451.083 131.676C450.906 131.835 450.663 131.914 450.355 131.914ZM459.38 141C458.717 141 458.199 140.823 457.826 140.468C457.462 140.113 457.28 139.614 457.28 138.97V134.448H455.11V133.3H457.28V131.13H458.54V133.3H461.62V134.448H458.54V138.97C458.54 139.558 458.82 139.852 459.38 139.852H461.48V141H459.38Z" fill="white"/>
                <path d="M365.78 141.14C364.8 141.14 364.03 140.865 363.47 140.314C362.91 139.763 362.63 139.012 362.63 138.06H363.89C363.89 138.685 364.053 139.171 364.38 139.516C364.716 139.852 365.183 140.02 365.78 140.02C366.377 140.02 366.839 139.852 367.166 139.516C367.502 139.171 367.67 138.685 367.67 138.06V131.928H365.22V130.78H368.93V138.06C368.93 139.012 368.645 139.763 368.076 140.314C367.516 140.865 366.751 141.14 365.78 141.14ZM374.581 141.14C373.694 141.14 372.985 140.879 372.453 140.356C371.921 139.824 371.655 139.105 371.655 138.2V133.3H372.915V138.2C372.915 138.779 373.064 139.231 373.363 139.558C373.661 139.875 374.067 140.034 374.581 140.034C375.103 140.034 375.514 139.875 375.813 139.558C376.121 139.231 376.275 138.779 376.275 138.2V133.3H377.535V138.2C377.535 139.105 377.264 139.824 376.723 140.356C376.181 140.879 375.467 141.14 374.581 141.14ZM382.751 141.112C382.228 141.112 381.771 141.033 381.379 140.874C380.996 140.706 380.688 140.473 380.455 140.174C380.231 139.875 380.096 139.521 380.049 139.11H381.309C381.365 139.381 381.514 139.595 381.757 139.754C382.009 139.913 382.34 139.992 382.751 139.992H383.339C383.834 139.992 384.202 139.894 384.445 139.698C384.688 139.493 384.809 139.222 384.809 138.886C384.809 138.559 384.697 138.303 384.473 138.116C384.258 137.92 383.936 137.789 383.507 137.724L382.471 137.556C381.715 137.425 381.15 137.192 380.777 136.856C380.413 136.511 380.231 136.011 380.231 135.358C380.231 134.667 380.45 134.135 380.889 133.762C381.328 133.379 381.986 133.188 382.863 133.188H383.395C384.132 133.188 384.725 133.361 385.173 133.706C385.621 134.051 385.892 134.518 385.985 135.106H384.725C384.669 134.863 384.529 134.672 384.305 134.532C384.081 134.383 383.778 134.308 383.395 134.308H382.863C382.387 134.308 382.037 134.397 381.813 134.574C381.598 134.751 381.491 135.017 381.491 135.372C381.491 135.689 381.584 135.923 381.771 136.072C381.958 136.221 382.252 136.329 382.653 136.394L383.689 136.562C384.52 136.693 385.122 136.935 385.495 137.29C385.878 137.645 386.069 138.158 386.069 138.83C386.069 139.539 385.84 140.099 385.383 140.51C384.935 140.911 384.254 141.112 383.339 141.112H382.751ZM392.224 141C391.561 141 391.043 140.823 390.67 140.468C390.306 140.113 390.124 139.614 390.124 138.97V134.448H387.954V133.3H390.124V131.13H391.384V133.3H394.464V134.448H391.384V138.97C391.384 139.558 391.664 139.852 392.224 139.852H394.324V141H392.224ZM407.935 141.112C407.412 141.112 406.955 141.033 406.563 140.874C406.18 140.706 405.872 140.473 405.639 140.174C405.415 139.875 405.279 139.521 405.233 139.11H406.493C406.549 139.381 406.698 139.595 406.941 139.754C407.193 139.913 407.524 139.992 407.935 139.992H408.523C409.017 139.992 409.386 139.894 409.629 139.698C409.871 139.493 409.993 139.222 409.993 138.886C409.993 138.559 409.881 138.303 409.657 138.116C409.442 137.92 409.12 137.789 408.691 137.724L407.655 137.556C406.899 137.425 406.334 137.192 405.961 136.856C405.597 136.511 405.415 136.011 405.415 135.358C405.415 134.667 405.634 134.135 406.073 133.762C406.511 133.379 407.169 133.188 408.047 133.188H408.579C409.316 133.188 409.909 133.361 410.357 133.706C410.805 134.051 411.075 134.518 411.169 135.106H409.909C409.853 134.863 409.713 134.672 409.489 134.532C409.265 134.383 408.961 134.308 408.579 134.308H408.047C407.571 134.308 407.221 134.397 406.997 134.574C406.782 134.751 406.675 135.017 406.675 135.372C406.675 135.689 406.768 135.923 406.955 136.072C407.141 136.221 407.435 136.329 407.837 136.394L408.873 136.562C409.703 136.693 410.305 136.935 410.679 137.29C411.061 137.645 411.253 138.158 411.253 138.83C411.253 139.539 411.024 140.099 410.567 140.51C410.119 140.911 409.437 141.112 408.523 141.112H407.935ZM415.895 141.14C415.083 141.14 414.444 140.935 413.977 140.524C413.511 140.104 413.277 139.539 413.277 138.83C413.277 138.111 413.511 137.547 413.977 137.136C414.444 136.725 415.074 136.52 415.867 136.52H418.247V135.75C418.247 135.274 418.103 134.91 417.813 134.658C417.533 134.397 417.132 134.266 416.609 134.266C416.152 134.266 415.769 134.364 415.461 134.56C415.153 134.747 414.976 135.003 414.929 135.33H413.669C413.753 134.667 414.066 134.14 414.607 133.748C415.149 133.356 415.825 133.16 416.637 133.16C417.524 133.16 418.224 133.389 418.737 133.846C419.251 134.303 419.507 134.924 419.507 135.708V141H418.275V139.53H418.065L418.275 139.32C418.275 139.88 418.056 140.323 417.617 140.65C417.188 140.977 416.614 141.14 415.895 141.14ZM416.203 140.146C416.801 140.146 417.291 139.997 417.673 139.698C418.056 139.399 418.247 139.017 418.247 138.55V137.458H415.895C415.475 137.458 415.144 137.575 414.901 137.808C414.659 138.041 414.537 138.359 414.537 138.76C414.537 139.189 414.682 139.53 414.971 139.782C415.27 140.025 415.681 140.146 416.203 140.146ZM424.108 141L421.532 133.3H422.82L424.528 138.48C424.63 138.788 424.724 139.087 424.808 139.376C424.892 139.656 424.952 139.875 424.99 140.034C425.036 139.875 425.102 139.656 425.186 139.376C425.27 139.087 425.358 138.788 425.452 138.48L427.118 133.3H428.392L425.816 141H424.108ZM433.356 141.14C432.75 141.14 432.218 141.019 431.76 140.776C431.312 140.533 430.962 140.193 430.71 139.754C430.468 139.306 430.346 138.788 430.346 138.2V136.1C430.346 135.503 430.468 134.985 430.71 134.546C430.962 134.107 431.312 133.767 431.76 133.524C432.218 133.281 432.75 133.16 433.356 133.16C433.963 133.16 434.49 133.281 434.938 133.524C435.396 133.767 435.746 134.107 435.988 134.546C436.24 134.985 436.366 135.503 436.366 136.1V137.458H431.578V138.2C431.578 138.807 431.732 139.273 432.04 139.6C432.348 139.917 432.787 140.076 433.356 140.076C433.842 140.076 434.234 139.992 434.532 139.824C434.831 139.647 435.013 139.385 435.078 139.04H436.338C436.254 139.684 435.937 140.197 435.386 140.58C434.845 140.953 434.168 141.14 433.356 141.14ZM435.134 136.618V136.1C435.134 135.493 434.98 135.027 434.672 134.7C434.374 134.373 433.935 134.21 433.356 134.21C432.787 134.21 432.348 134.373 432.04 134.7C431.732 135.027 431.578 135.493 431.578 136.1V136.506H435.232L435.134 136.618ZM447.135 141V139.852H449.865V134.448H447.485V133.3H451.125V139.852H453.715V141H447.135ZM450.355 131.914C450.047 131.914 449.805 131.835 449.627 131.676C449.45 131.517 449.361 131.303 449.361 131.032C449.361 130.752 449.45 130.533 449.627 130.374C449.805 130.206 450.047 130.122 450.355 130.122C450.663 130.122 450.906 130.206 451.083 130.374C451.261 130.533 451.349 130.752 451.349 131.032C451.349 131.303 451.261 131.517 451.083 131.676C450.906 131.835 450.663 131.914 450.355 131.914ZM459.38 141C458.717 141 458.199 140.823 457.826 140.468C457.462 140.113 457.28 139.614 457.28 138.97V134.448H455.11V133.3H457.28V131.13H458.54V133.3H461.62V134.448H458.54V138.97C458.54 139.558 458.82 139.852 459.38 139.852H461.48V141H459.38Z" fill="black" fill-opacity="0.2"/>
                </g>
                <circle id="Ellipse 1" cx="500.5" cy="462.5" r="12.5" fill="#D9D9D9"/>

            </svg>