<?xml version="1.0" encoding="utf-8"?>
<!-- Generator: Adobe Illustrator 19.0.0, SVG Export Plug-In . SVG Version: 6.00 Build 0)  -->
<svg version="1.1" id="Layer_1" xmlns="http://www.w3.org/2000/svg" xmlns:xlink="http://www.w3.org/1999/xlink" x="0px" y="0px"
	 viewBox="0 0 300 300" style="enable-background:new 0 0 300 300;" xml:space="preserve">
<style type="text/css">
	.st0{fill:#FFFFFF;}
	.st1{fill:#010101;}
</style>
<g id="XMLID_3_">
	<circle id="XMLID_1_" class="st0" cx="150.1" cy="150.1" r="95.1"/>
	<path id="XMLID_5_" class="st1" d="M132.6,247.6c53.8,9.6,105.2-26.2,114.9-80c9.6-53.8-26.2-105.2-80-114.9
		c-53.8-9.6-105.3,26.2-114.9,80C43,186.5,78.8,237.9,132.6,247.6z M122.4,240.1C99,233,80,217.2,68.5,197.1c0,0,0,0,0,0
		c-0.1-0.1-0.1-0.2-0.2-0.4c0,0,0-0.1-0.1-0.1c0,0,0,0.1,0.1,0.1c0.1,0.1,0.1,0.2,0.2,0.4c0.1-1.2,0.2-2.6,0.4-4.3
		c0.2-1.6,0.3-3.4,0.5-5.2c7,3.3,16.2,5,26.8,4.9c4.5,6.1,22.4,21.7,29.5,24.6c0.4,7.4,2.2,16.3,3.5,21.1
		C126.9,238.6,124.6,239.3,122.4,240.1z M111.7,155.7c-4-6.5-13.1-23-13.6-36.4c9.4-13,17.7-22.7,25.3-29.6
		c6.2-0.8,13.2-0.5,20.8,0.8c6.4,1.1,11.9,2.8,15.5,4.1c2,0.7,3.6,1.3,4.6,1.7c0.1,0.1,0.2,0.1,0.3,0.1c5.7,11.3,9.6,24,12.8,35
		c-3.5,8.2-10.7,16.4-16.2,21.8c-2.6,2.6-5.4,5.2-8.3,7.6c-1.2,1-2.1,1.8-2.7,2.2c-3.8-0.6-7.6-1.1-11.6-1.6
		c-6.5-0.8-13.3-1.7-20.9-3.1c-1.7-0.3-3.4-0.6-5-0.9C112.5,156.9,112.1,156.3,111.7,155.7z M197.4,231.1
		c-16.6,9.8-36.3,14.6-56.6,12.7c0,0,0,0,0,0c-3.1-1.8-6-3.5-8.9-4.9c-1.4-4.6-3.3-14.1-3.7-21.6c8.9-1.7,27-11,31.9-14.3
		c5.4,2.9,13.2,5.5,21,6.8c6.4,1.1,12,1.4,15.8,0.6C197.9,215.6,198.3,224,197.4,231.1z M197.1,207.8c-3.5,0.8-9.1,0.6-15.6-0.5
		l-0.1,0.5l0,0l0.1-0.5l0,0c-7.5-1.4-15.1-3.8-20.3-6.7c-0.7-2.8-1.3-5.7-1.9-8.5c-2.1-9.1-4.2-18.6-6.9-27.5
		c5.5-4.5,20.9-17.9,27.1-31.8c5,0.9,10.3,1.9,15.5,2.8c3.4,0.6,6.7,1.2,9.8,1.7c2.5,0.4,4.6,0.8,6.5,1.2c4.7,7.2,7.6,17.1,9.3,24.2
		c1,4.5,1.7,8.5,2,11c0.2,1.5,0.4,2.7,0.5,3.5C215,189,205.8,198.9,197.1,207.8z M230.5,102.8L230.5,102.8
		c11,18.6,15.6,41.1,11.5,64.1c-0.8,4.7-2.1,9.3-3.6,13.7c-4.2-2-9.9-3.5-12.9-4.2c-0.6-5.5-3.5-25.8-11.8-38.8
		c4-6.3,9.9-17.8,9-28.5C225.4,107.1,228,105,230.5,102.8C230.4,102.8,230.4,102.8,230.5,102.8C230.4,102.8,230.4,102.8,230.5,102.8
		z M177.3,60.8C177.3,60.8,177.3,60.8,177.3,60.8c22.1,6.8,40.2,21.2,51.8,39.8c-2.3,2.1-4.8,4.1-7.4,6.2
		c-4.7-7.4-20.4-23.8-28.5-26.7C189.1,71.7,182.6,65.2,177.3,60.8c0,0-0.1,0-0.2,0c-0.1,0-0.2,0-0.2-0.1c0.1,0,0.2,0.1,0.2,0.1
		C177.2,60.8,177.3,60.8,177.3,60.8z M130.2,58.7c11.5-2.5,23.7-2.8,36-0.6c1.6,0.3,3.1,0.6,4.6,1C176.3,62.9,185,70,190.4,80
		c-5.8,1.2-18.7,7.6-25.2,13.8c-3.4-1.4-11.2-4.2-20.5-5.9c-7.4-1.3-14.4-1.7-20.7-1c-3.1-8.6-6.6-14.1-10.7-16.7
		c4.1-3.6,8.8-6.9,14.2-10C128.3,59.7,129.3,59.2,130.2,58.7z M121.3,61.1c-4,2.6-7.7,5.4-10.9,8.4c-4.6,0.9-10.3,2.4-16.9,5.9
		C101.9,69.1,111.3,64.3,121.3,61.1z M93.4,119.5c0.9,0.1,1.6,0.3,2.2,0.5c0.8,14.7,11.1,32.4,14.9,38.5c-7.1,8.8-12.4,20-14.9,31.6
		c-4.8,0-9.3-0.4-13.4-1.1c-5-0.9-9.4-2.4-13.1-4.3c-4.8-8.1-10.4-22.4-11.6-33.4c0.1-0.3,0.1-0.7,0.2-1.2
		c0.9-4.9,4.5-21.6,15.1-32.6C77.2,117.7,87.5,118.5,93.4,119.5z M57.4,133.9c3-16.6,10.2-31.4,20.2-43.5
		c-4.5,8.7-6.8,17.3-6.9,25.6c-8.8,9.3-12.9,21.9-14.7,29.6C56.3,141.7,56.7,137.8,57.4,133.9z"/>
</g>
</svg>
